<?xml version="1.0" encoding="UTF-8"?>
<svg xmlns="http://www.w3.org/2000/svg" xmlns:xlink="http://www.w3.org/1999/xlink" width="2000" height="2000" viewBox="0 0 2000 2000">
<defs>
<clipPath id="clip-0">
<path clip-rule="nonzero" d="M 1113 1130 L 1135 1130 L 1135 1174 L 1113 1174 Z M 1113 1130 "/>
</clipPath>
<clipPath id="clip-1">
<path clip-rule="evenodd" d="M 1019.519531 1129.3125 C 1025.921875 1124.070312 983.351562 1068.265625 1023.628906 1084.777344 C 1031.949219 1088.1875 1106.988281 1101.84375 1114.679688 1102.753906 C 1123.238281 1103.761719 1125.121094 1112.15625 1129.289062 1118.210938 C 1139.710938 1133.308594 1145.25 1153.871094 1150.210938 1170.824219 C 1151.421875 1174.953125 1137.121094 1176.242188 1131.21875 1169.941406 C 1129.738281 1168.367188 1127.121094 1176.339844 1125.691406 1177.742188 C 1122.761719 1180.621094 1119.050781 1178.785156 1115.730469 1180.40625 C 1112.988281 1181.746094 1112.371094 1185.128906 1109.53125 1186.25 C 1105.640625 1187.78125 1102.210938 1184.734375 1098.449219 1185.035156 C 1094.378906 1185.359375 1093.480469 1190.410156 1088.960938 1190.601562 C 1083.128906 1190.851562 1078.738281 1185.632812 1073.109375 1184.789062 C 1061.949219 1183.113281 1039.148438 1191.738281 1031.050781 1178.0625 C 1030.039062 1176.351562 982.1875 1122.75 992.527344 1127.148438 C 995.453125 1128.394531 1010.921875 1140.707031 1010.921875 1137.730469 C 1010.921875 1134.105469 1019.519531 1129.3125 1019.519531 1129.3125 Z M 1019.519531 1129.3125 "/>
</clipPath>
<clipPath id="clip-2">
<path clip-rule="nonzero" d="M 1094 1148 L 1120 1148 L 1120 1185 L 1094 1185 Z M 1094 1148 "/>
</clipPath>
<clipPath id="clip-3">
<path clip-rule="evenodd" d="M 1019.519531 1129.3125 C 1025.921875 1124.070312 983.351562 1068.265625 1023.628906 1084.777344 C 1031.949219 1088.1875 1106.988281 1101.84375 1114.679688 1102.753906 C 1123.238281 1103.761719 1125.121094 1112.15625 1129.289062 1118.210938 C 1139.710938 1133.308594 1145.25 1153.871094 1150.210938 1170.824219 C 1151.421875 1174.953125 1137.121094 1176.242188 1131.21875 1169.941406 C 1129.738281 1168.367188 1127.121094 1176.339844 1125.691406 1177.742188 C 1122.761719 1180.621094 1119.050781 1178.785156 1115.730469 1180.40625 C 1112.988281 1181.746094 1112.371094 1185.128906 1109.53125 1186.25 C 1105.640625 1187.78125 1102.210938 1184.734375 1098.449219 1185.035156 C 1094.378906 1185.359375 1093.480469 1190.410156 1088.960938 1190.601562 C 1083.128906 1190.851562 1078.738281 1185.632812 1073.109375 1184.789062 C 1061.949219 1183.113281 1039.148438 1191.738281 1031.050781 1178.0625 C 1030.039062 1176.351562 982.1875 1122.75 992.527344 1127.148438 C 995.453125 1128.394531 1010.921875 1140.707031 1010.921875 1137.730469 C 1010.921875 1134.105469 1019.519531 1129.3125 1019.519531 1129.3125 Z M 1019.519531 1129.3125 "/>
</clipPath>
<clipPath id="clip-4">
<path clip-rule="nonzero" d="M 1077 1158 L 1104 1158 L 1104 1191 L 1077 1191 Z M 1077 1158 "/>
</clipPath>
<clipPath id="clip-5">
<path clip-rule="evenodd" d="M 1019.519531 1129.3125 C 1025.921875 1124.070312 983.351562 1068.265625 1023.628906 1084.777344 C 1031.949219 1088.1875 1106.988281 1101.84375 1114.679688 1102.753906 C 1123.238281 1103.761719 1125.121094 1112.15625 1129.289062 1118.210938 C 1139.710938 1133.308594 1145.25 1153.871094 1150.210938 1170.824219 C 1151.421875 1174.953125 1137.121094 1176.242188 1131.21875 1169.941406 C 1129.738281 1168.367188 1127.121094 1176.339844 1125.691406 1177.742188 C 1122.761719 1180.621094 1119.050781 1178.785156 1115.730469 1180.40625 C 1112.988281 1181.746094 1112.371094 1185.128906 1109.53125 1186.25 C 1105.640625 1187.78125 1102.210938 1184.734375 1098.449219 1185.035156 C 1094.378906 1185.359375 1093.480469 1190.410156 1088.960938 1190.601562 C 1083.128906 1190.851562 1078.738281 1185.632812 1073.109375 1184.789062 C 1061.949219 1183.113281 1039.148438 1191.738281 1031.050781 1178.0625 C 1030.039062 1176.351562 982.1875 1122.75 992.527344 1127.148438 C 995.453125 1128.394531 1010.921875 1140.707031 1010.921875 1137.730469 C 1010.921875 1134.105469 1019.519531 1129.3125 1019.519531 1129.3125 Z M 1019.519531 1129.3125 "/>
</clipPath>
<clipPath id="clip-6">
<path clip-rule="nonzero" d="M 325 985 L 350 985 L 350 1026 L 325 1026 Z M 325 985 "/>
</clipPath>
<clipPath id="clip-7">
<path clip-rule="evenodd" d="M 323.199219 1017.316406 L 338.867188 985.769531 L 374.929688 987.160156 L 366.277344 1017.316406 C 365.332031 1020.601562 363.542969 1023.71875 361.476562 1026.371094 C 358.3125 1030.433594 354.496094 1034.027344 349.773438 1036.210938 C 339.988281 1040.734375 331.652344 1038.71875 326.421875 1028.804688 C 325.074219 1026.242188 323.597656 1020.175781 323.199219 1017.316406 Z M 323.199219 1017.316406 "/>
</clipPath>
<clipPath id="clip-8">
<path clip-rule="nonzero" d="M 329 985 L 355 985 L 355 1031 L 329 1031 Z M 329 985 "/>
</clipPath>
<clipPath id="clip-9">
<path clip-rule="evenodd" d="M 323.199219 1017.316406 L 338.867188 985.769531 L 374.929688 987.160156 L 366.277344 1017.316406 C 365.332031 1020.601562 363.542969 1023.71875 361.476562 1026.371094 C 358.3125 1030.433594 354.496094 1034.027344 349.773438 1036.210938 C 339.988281 1040.734375 331.652344 1038.71875 326.421875 1028.804688 C 325.074219 1026.242188 323.597656 1020.175781 323.199219 1017.316406 Z M 323.199219 1017.316406 "/>
</clipPath>
<clipPath id="clip-10">
<path clip-rule="nonzero" d="M 336 985 L 359 985 L 359 1033 L 336 1033 Z M 336 985 "/>
</clipPath>
<clipPath id="clip-11">
<path clip-rule="evenodd" d="M 323.199219 1017.316406 L 338.867188 985.769531 L 374.929688 987.160156 L 366.277344 1017.316406 C 365.332031 1020.601562 363.542969 1023.71875 361.476562 1026.371094 C 358.3125 1030.433594 354.496094 1034.027344 349.773438 1036.210938 C 339.988281 1040.734375 331.652344 1038.71875 326.421875 1028.804688 C 325.074219 1026.242188 323.597656 1020.175781 323.199219 1017.316406 Z M 323.199219 1017.316406 "/>
</clipPath>
<clipPath id="clip-12">
<path clip-rule="nonzero" d="M 344 985 L 372 985 L 372 1033 L 344 1033 Z M 344 985 "/>
</clipPath>
<clipPath id="clip-13">
<path clip-rule="evenodd" d="M 323.199219 1017.316406 L 338.867188 985.769531 L 374.929688 987.160156 L 366.277344 1017.316406 C 365.332031 1020.601562 363.542969 1023.71875 361.476562 1026.371094 C 358.3125 1030.433594 354.496094 1034.027344 349.773438 1036.210938 C 339.988281 1040.734375 331.652344 1038.71875 326.421875 1028.804688 C 325.074219 1026.242188 323.597656 1020.175781 323.199219 1017.316406 Z M 323.199219 1017.316406 "/>
</clipPath>
<clipPath id="clip-14">
<path clip-rule="nonzero" d="M 354 985 L 372 985 L 372 1029 L 354 1029 Z M 354 985 "/>
</clipPath>
<clipPath id="clip-15">
<path clip-rule="evenodd" d="M 323.199219 1017.316406 L 338.867188 985.769531 L 374.929688 987.160156 L 366.277344 1017.316406 C 365.332031 1020.601562 363.542969 1023.71875 361.476562 1026.371094 C 358.3125 1030.433594 354.496094 1034.027344 349.773438 1036.210938 C 339.988281 1040.734375 331.652344 1038.71875 326.421875 1028.804688 C 325.074219 1026.242188 323.597656 1020.175781 323.199219 1017.316406 Z M 323.199219 1017.316406 "/>
</clipPath>
<clipPath id="clip-16">
<path clip-rule="nonzero" d="M 360 985 L 375 985 L 375 1025 L 360 1025 Z M 360 985 "/>
</clipPath>
<clipPath id="clip-17">
<path clip-rule="evenodd" d="M 323.199219 1017.316406 L 338.867188 985.769531 L 374.929688 987.160156 L 366.277344 1017.316406 C 365.332031 1020.601562 363.542969 1023.71875 361.476562 1026.371094 C 358.3125 1030.433594 354.496094 1034.027344 349.773438 1036.210938 C 339.988281 1040.734375 331.652344 1038.71875 326.421875 1028.804688 C 325.074219 1026.242188 323.597656 1020.175781 323.199219 1017.316406 Z M 323.199219 1017.316406 "/>
</clipPath>
<clipPath id="clip-18">
<path clip-rule="nonzero" d="M 339 985 L 367 985 L 367 1034 L 339 1034 Z M 339 985 "/>
</clipPath>
<clipPath id="clip-19">
<path clip-rule="evenodd" d="M 323.199219 1017.316406 L 338.867188 985.769531 L 374.929688 987.160156 L 366.277344 1017.316406 C 365.332031 1020.601562 363.542969 1023.71875 361.476562 1026.371094 C 358.3125 1030.433594 354.496094 1034.027344 349.773438 1036.210938 C 339.988281 1040.734375 331.652344 1038.71875 326.421875 1028.804688 C 325.074219 1026.242188 323.597656 1020.175781 323.199219 1017.316406 Z M 323.199219 1017.316406 "/>
</clipPath>
<clipPath id="clip-20">
<path clip-rule="nonzero" d="M 348 985 L 375 985 L 375 1031 L 348 1031 Z M 348 985 "/>
</clipPath>
<clipPath id="clip-21">
<path clip-rule="evenodd" d="M 323.199219 1017.316406 L 338.867188 985.769531 L 374.929688 987.160156 L 366.277344 1017.316406 C 365.332031 1020.601562 363.542969 1023.71875 361.476562 1026.371094 C 358.3125 1030.433594 354.496094 1034.027344 349.773438 1036.210938 C 339.988281 1040.734375 331.652344 1038.71875 326.421875 1028.804688 C 325.074219 1026.242188 323.597656 1020.175781 323.199219 1017.316406 Z M 323.199219 1017.316406 "/>
</clipPath>
<clipPath id="clip-22">
<path clip-rule="nonzero" d="M 368 985 L 393 985 L 393 1026 L 368 1026 Z M 368 985 "/>
</clipPath>
<clipPath id="clip-23">
<path clip-rule="evenodd" d="M 366.277344 1017.316406 L 381.945312 985.769531 L 418.003906 987.160156 L 409.351562 1017.316406 C 408.410156 1020.601562 406.617188 1023.71875 404.554688 1026.371094 C 401.386719 1030.433594 397.570312 1034.027344 392.847656 1036.210938 C 383.0625 1040.734375 374.726562 1038.71875 369.5 1028.804688 C 368.148438 1026.242188 366.671875 1020.175781 366.277344 1017.316406 Z M 366.277344 1017.316406 "/>
</clipPath>
<clipPath id="clip-24">
<path clip-rule="nonzero" d="M 372 985 L 399 985 L 399 1031 L 372 1031 Z M 372 985 "/>
</clipPath>
<clipPath id="clip-25">
<path clip-rule="evenodd" d="M 366.277344 1017.316406 L 381.945312 985.769531 L 418.003906 987.160156 L 409.351562 1017.316406 C 408.410156 1020.601562 406.617188 1023.71875 404.554688 1026.371094 C 401.386719 1030.433594 397.570312 1034.027344 392.847656 1036.210938 C 383.0625 1040.734375 374.726562 1038.71875 369.5 1028.804688 C 368.148438 1026.242188 366.671875 1020.175781 366.277344 1017.316406 Z M 366.277344 1017.316406 "/>
</clipPath>
<clipPath id="clip-26">
<path clip-rule="nonzero" d="M 379 985 L 402 985 L 402 1033 L 379 1033 Z M 379 985 "/>
</clipPath>
<clipPath id="clip-27">
<path clip-rule="evenodd" d="M 366.277344 1017.316406 L 381.945312 985.769531 L 418.003906 987.160156 L 409.351562 1017.316406 C 408.410156 1020.601562 406.617188 1023.71875 404.554688 1026.371094 C 401.386719 1030.433594 397.570312 1034.027344 392.847656 1036.210938 C 383.0625 1040.734375 374.726562 1038.71875 369.5 1028.804688 C 368.148438 1026.242188 366.671875 1020.175781 366.277344 1017.316406 Z M 366.277344 1017.316406 "/>
</clipPath>
<clipPath id="clip-28">
<path clip-rule="nonzero" d="M 387 985 L 415 985 L 415 1033 L 387 1033 Z M 387 985 "/>
</clipPath>
<clipPath id="clip-29">
<path clip-rule="evenodd" d="M 366.277344 1017.316406 L 381.945312 985.769531 L 418.003906 987.160156 L 409.351562 1017.316406 C 408.410156 1020.601562 406.617188 1023.71875 404.554688 1026.371094 C 401.386719 1030.433594 397.570312 1034.027344 392.847656 1036.210938 C 383.0625 1040.734375 374.726562 1038.71875 369.5 1028.804688 C 368.148438 1026.242188 366.671875 1020.175781 366.277344 1017.316406 Z M 366.277344 1017.316406 "/>
</clipPath>
<clipPath id="clip-30">
<path clip-rule="nonzero" d="M 397 985 L 415 985 L 415 1029 L 397 1029 Z M 397 985 "/>
</clipPath>
<clipPath id="clip-31">
<path clip-rule="evenodd" d="M 366.277344 1017.316406 L 381.945312 985.769531 L 418.003906 987.160156 L 409.351562 1017.316406 C 408.410156 1020.601562 406.617188 1023.71875 404.554688 1026.371094 C 401.386719 1030.433594 397.570312 1034.027344 392.847656 1036.210938 C 383.0625 1040.734375 374.726562 1038.71875 369.5 1028.804688 C 368.148438 1026.242188 366.671875 1020.175781 366.277344 1017.316406 Z M 366.277344 1017.316406 "/>
</clipPath>
<clipPath id="clip-32">
<path clip-rule="nonzero" d="M 403 985 L 419 985 L 419 1025 L 403 1025 Z M 403 985 "/>
</clipPath>
<clipPath id="clip-33">
<path clip-rule="evenodd" d="M 366.277344 1017.316406 L 381.945312 985.769531 L 418.003906 987.160156 L 409.351562 1017.316406 C 408.410156 1020.601562 406.617188 1023.71875 404.554688 1026.371094 C 401.386719 1030.433594 397.570312 1034.027344 392.847656 1036.210938 C 383.0625 1040.734375 374.726562 1038.71875 369.5 1028.804688 C 368.148438 1026.242188 366.671875 1020.175781 366.277344 1017.316406 Z M 366.277344 1017.316406 "/>
</clipPath>
<clipPath id="clip-34">
<path clip-rule="nonzero" d="M 382 985 L 410 985 L 410 1034 L 382 1034 Z M 382 985 "/>
</clipPath>
<clipPath id="clip-35">
<path clip-rule="evenodd" d="M 366.277344 1017.316406 L 381.945312 985.769531 L 418.003906 987.160156 L 409.351562 1017.316406 C 408.410156 1020.601562 406.617188 1023.71875 404.554688 1026.371094 C 401.386719 1030.433594 397.570312 1034.027344 392.847656 1036.210938 C 383.0625 1040.734375 374.726562 1038.71875 369.5 1028.804688 C 368.148438 1026.242188 366.671875 1020.175781 366.277344 1017.316406 Z M 366.277344 1017.316406 "/>
</clipPath>
<clipPath id="clip-36">
<path clip-rule="nonzero" d="M 391 985 L 418 985 L 418 1031 L 391 1031 Z M 391 985 "/>
</clipPath>
<clipPath id="clip-37">
<path clip-rule="evenodd" d="M 366.277344 1017.316406 L 381.945312 985.769531 L 418.003906 987.160156 L 409.351562 1017.316406 C 408.410156 1020.601562 406.617188 1023.71875 404.554688 1026.371094 C 401.386719 1030.433594 397.570312 1034.027344 392.847656 1036.210938 C 383.0625 1040.734375 374.726562 1038.71875 369.5 1028.804688 C 368.148438 1026.242188 366.671875 1020.175781 366.277344 1017.316406 Z M 366.277344 1017.316406 "/>
</clipPath>
<clipPath id="clip-38">
<path clip-rule="nonzero" d="M 411 986 L 436 986 L 436 1027 L 411 1027 Z M 411 986 "/>
</clipPath>
<clipPath id="clip-39">
<path clip-rule="evenodd" d="M 409.351562 1018.4375 L 425.019531 986.890625 L 461.078125 988.28125 L 452.425781 1018.4375 C 451.484375 1021.726562 449.695312 1024.839844 447.628906 1027.492188 C 444.464844 1031.558594 440.644531 1035.148438 435.925781 1037.332031 C 426.136719 1041.855469 417.800781 1039.84375 412.574219 1029.925781 C 411.226562 1027.367188 409.746094 1021.296875 409.351562 1018.4375 Z M 409.351562 1018.4375 "/>
</clipPath>
<clipPath id="clip-40">
<path clip-rule="nonzero" d="M 415 986 L 442 986 L 442 1032 L 415 1032 Z M 415 986 "/>
</clipPath>
<clipPath id="clip-41">
<path clip-rule="evenodd" d="M 409.351562 1018.4375 L 425.019531 986.890625 L 461.078125 988.28125 L 452.425781 1018.4375 C 451.484375 1021.726562 449.695312 1024.839844 447.628906 1027.492188 C 444.464844 1031.558594 440.644531 1035.148438 435.925781 1037.332031 C 426.136719 1041.855469 417.800781 1039.84375 412.574219 1029.925781 C 411.226562 1027.367188 409.746094 1021.296875 409.351562 1018.4375 Z M 409.351562 1018.4375 "/>
</clipPath>
<clipPath id="clip-42">
<path clip-rule="nonzero" d="M 422 986 L 445 986 L 445 1034 L 422 1034 Z M 422 986 "/>
</clipPath>
<clipPath id="clip-43">
<path clip-rule="evenodd" d="M 409.351562 1018.4375 L 425.019531 986.890625 L 461.078125 988.28125 L 452.425781 1018.4375 C 451.484375 1021.726562 449.695312 1024.839844 447.628906 1027.492188 C 444.464844 1031.558594 440.644531 1035.148438 435.925781 1037.332031 C 426.136719 1041.855469 417.800781 1039.84375 412.574219 1029.925781 C 411.226562 1027.367188 409.746094 1021.296875 409.351562 1018.4375 Z M 409.351562 1018.4375 "/>
</clipPath>
<clipPath id="clip-44">
<path clip-rule="nonzero" d="M 430 986 L 458 986 L 458 1035 L 430 1035 Z M 430 986 "/>
</clipPath>
<clipPath id="clip-45">
<path clip-rule="evenodd" d="M 409.351562 1018.4375 L 425.019531 986.890625 L 461.078125 988.28125 L 452.425781 1018.4375 C 451.484375 1021.726562 449.695312 1024.839844 447.628906 1027.492188 C 444.464844 1031.558594 440.644531 1035.148438 435.925781 1037.332031 C 426.136719 1041.855469 417.800781 1039.84375 412.574219 1029.925781 C 411.226562 1027.367188 409.746094 1021.296875 409.351562 1018.4375 Z M 409.351562 1018.4375 "/>
</clipPath>
<clipPath id="clip-46">
<path clip-rule="nonzero" d="M 440 986 L 458 986 L 458 1030 L 440 1030 Z M 440 986 "/>
</clipPath>
<clipPath id="clip-47">
<path clip-rule="evenodd" d="M 409.351562 1018.4375 L 425.019531 986.890625 L 461.078125 988.28125 L 452.425781 1018.4375 C 451.484375 1021.726562 449.695312 1024.839844 447.628906 1027.492188 C 444.464844 1031.558594 440.644531 1035.148438 435.925781 1037.332031 C 426.136719 1041.855469 417.800781 1039.84375 412.574219 1029.925781 C 411.226562 1027.367188 409.746094 1021.296875 409.351562 1018.4375 Z M 409.351562 1018.4375 "/>
</clipPath>
<clipPath id="clip-48">
<path clip-rule="nonzero" d="M 446 986 L 462 986 L 462 1026 L 446 1026 Z M 446 986 "/>
</clipPath>
<clipPath id="clip-49">
<path clip-rule="evenodd" d="M 409.351562 1018.4375 L 425.019531 986.890625 L 461.078125 988.28125 L 452.425781 1018.4375 C 451.484375 1021.726562 449.695312 1024.839844 447.628906 1027.492188 C 444.464844 1031.558594 440.644531 1035.148438 435.925781 1037.332031 C 426.136719 1041.855469 417.800781 1039.84375 412.574219 1029.925781 C 411.226562 1027.367188 409.746094 1021.296875 409.351562 1018.4375 Z M 409.351562 1018.4375 "/>
</clipPath>
<clipPath id="clip-50">
<path clip-rule="nonzero" d="M 425 986 L 453 986 L 453 1036 L 425 1036 Z M 425 986 "/>
</clipPath>
<clipPath id="clip-51">
<path clip-rule="evenodd" d="M 409.351562 1018.4375 L 425.019531 986.890625 L 461.078125 988.28125 L 452.425781 1018.4375 C 451.484375 1021.726562 449.695312 1024.839844 447.628906 1027.492188 C 444.464844 1031.558594 440.644531 1035.148438 435.925781 1037.332031 C 426.136719 1041.855469 417.800781 1039.84375 412.574219 1029.925781 C 411.226562 1027.367188 409.746094 1021.296875 409.351562 1018.4375 Z M 409.351562 1018.4375 "/>
</clipPath>
<clipPath id="clip-52">
<path clip-rule="nonzero" d="M 435 986 L 462 986 L 462 1032 L 435 1032 Z M 435 986 "/>
</clipPath>
<clipPath id="clip-53">
<path clip-rule="evenodd" d="M 409.351562 1018.4375 L 425.019531 986.890625 L 461.078125 988.28125 L 452.425781 1018.4375 C 451.484375 1021.726562 449.695312 1024.839844 447.628906 1027.492188 C 444.464844 1031.558594 440.644531 1035.148438 435.925781 1037.332031 C 426.136719 1041.855469 417.800781 1039.84375 412.574219 1029.925781 C 411.226562 1027.367188 409.746094 1021.296875 409.351562 1018.4375 Z M 409.351562 1018.4375 "/>
</clipPath>
<clipPath id="clip-54">
<path clip-rule="nonzero" d="M 456 991 L 459 991 L 459 1048 L 456 1048 Z M 456 991 "/>
</clipPath>
<clipPath id="clip-55">
<path clip-rule="evenodd" d="M 452.425781 1040.996094 L 453.113281 1005.78125 L 486.308594 991.628906 L 491.371094 1022.589844 C 491.925781 1025.96875 491.636719 1029.546875 490.902344 1032.828125 C 489.777344 1037.855469 487.863281 1042.734375 484.527344 1046.726562 C 477.609375 1054.996094 469.214844 1056.738281 460.25 1050.007812 C 457.933594 1048.269531 454.007812 1043.414062 452.425781 1040.996094 Z M 452.425781 1040.996094 "/>
</clipPath>
<clipPath id="clip-56">
<path clip-rule="nonzero" d="M 459 991 L 465 991 L 465 1050 L 459 1050 Z M 459 991 "/>
</clipPath>
<clipPath id="clip-57">
<path clip-rule="evenodd" d="M 452.425781 1040.996094 L 453.113281 1005.78125 L 486.308594 991.628906 L 491.371094 1022.589844 C 491.925781 1025.96875 491.636719 1029.546875 490.902344 1032.828125 C 489.777344 1037.855469 487.863281 1042.734375 484.527344 1046.726562 C 477.609375 1054.996094 469.214844 1056.738281 460.25 1050.007812 C 457.933594 1048.269531 454.007812 1043.414062 452.425781 1040.996094 Z M 452.425781 1040.996094 "/>
</clipPath>
<clipPath id="clip-58">
<path clip-rule="nonzero" d="M 463 991 L 472 991 L 472 1049 L 463 1049 Z M 463 991 "/>
</clipPath>
<clipPath id="clip-59">
<path clip-rule="evenodd" d="M 452.425781 1040.996094 L 453.113281 1005.78125 L 486.308594 991.628906 L 491.371094 1022.589844 C 491.925781 1025.96875 491.636719 1029.546875 490.902344 1032.828125 C 489.777344 1037.855469 487.863281 1042.734375 484.527344 1046.726562 C 477.609375 1054.996094 469.214844 1056.738281 460.25 1050.007812 C 457.933594 1048.269531 454.007812 1043.414062 452.425781 1040.996094 Z M 452.425781 1040.996094 "/>
</clipPath>
<clipPath id="clip-60">
<path clip-rule="nonzero" d="M 471 991 L 480 991 L 480 1046 L 471 1046 Z M 471 991 "/>
</clipPath>
<clipPath id="clip-61">
<path clip-rule="evenodd" d="M 452.425781 1040.996094 L 453.113281 1005.78125 L 486.308594 991.628906 L 491.371094 1022.589844 C 491.925781 1025.96875 491.636719 1029.546875 490.902344 1032.828125 C 489.777344 1037.855469 487.863281 1042.734375 484.527344 1046.726562 C 477.609375 1054.996094 469.214844 1056.738281 460.25 1050.007812 C 457.933594 1048.269531 454.007812 1043.414062 452.425781 1040.996094 Z M 452.425781 1040.996094 "/>
</clipPath>
<clipPath id="clip-62">
<path clip-rule="nonzero" d="M 479 991 L 487 991 L 487 1038 L 479 1038 Z M 479 991 "/>
</clipPath>
<clipPath id="clip-63">
<path clip-rule="evenodd" d="M 452.425781 1040.996094 L 453.113281 1005.78125 L 486.308594 991.628906 L 491.371094 1022.589844 C 491.925781 1025.96875 491.636719 1029.546875 490.902344 1032.828125 C 489.777344 1037.855469 487.863281 1042.734375 484.527344 1046.726562 C 477.609375 1054.996094 469.214844 1056.738281 460.25 1050.007812 C 457.933594 1048.269531 454.007812 1043.414062 452.425781 1040.996094 Z M 452.425781 1040.996094 "/>
</clipPath>
<clipPath id="clip-64">
<path clip-rule="nonzero" d="M 484 991 L 491 991 L 491 1032 L 484 1032 Z M 484 991 "/>
</clipPath>
<clipPath id="clip-65">
<path clip-rule="evenodd" d="M 452.425781 1040.996094 L 453.113281 1005.78125 L 486.308594 991.628906 L 491.371094 1022.589844 C 491.925781 1025.96875 491.636719 1029.546875 490.902344 1032.828125 C 489.777344 1037.855469 487.863281 1042.734375 484.527344 1046.726562 C 477.609375 1054.996094 469.214844 1056.738281 460.25 1050.007812 C 457.933594 1048.269531 454.007812 1043.414062 452.425781 1040.996094 Z M 452.425781 1040.996094 "/>
</clipPath>
<clipPath id="clip-66">
<path clip-rule="nonzero" d="M 468 991 L 476 991 L 476 1049 L 468 1049 Z M 468 991 "/>
</clipPath>
<clipPath id="clip-67">
<path clip-rule="evenodd" d="M 452.425781 1040.996094 L 453.113281 1005.78125 L 486.308594 991.628906 L 491.371094 1022.589844 C 491.925781 1025.96875 491.636719 1029.546875 490.902344 1032.828125 C 489.777344 1037.855469 487.863281 1042.734375 484.527344 1046.726562 C 477.609375 1054.996094 469.214844 1056.738281 460.25 1050.007812 C 457.933594 1048.269531 454.007812 1043.414062 452.425781 1040.996094 Z M 452.425781 1040.996094 "/>
</clipPath>
<clipPath id="clip-68">
<path clip-rule="nonzero" d="M 475 991 L 483 991 L 483 1042 L 475 1042 Z M 475 991 "/>
</clipPath>
<clipPath id="clip-69">
<path clip-rule="evenodd" d="M 452.425781 1040.996094 L 453.113281 1005.78125 L 486.308594 991.628906 L 491.371094 1022.589844 C 491.925781 1025.96875 491.636719 1029.546875 490.902344 1032.828125 C 489.777344 1037.855469 487.863281 1042.734375 484.527344 1046.726562 C 477.609375 1054.996094 469.214844 1056.738281 460.25 1050.007812 C 457.933594 1048.269531 454.007812 1043.414062 452.425781 1040.996094 Z M 452.425781 1040.996094 "/>
</clipPath>
<clipPath id="clip-70">
<path clip-rule="nonzero" d="M 508 1026 L 526 1026 L 526 1080 L 508 1080 Z M 508 1026 "/>
</clipPath>
<clipPath id="clip-71">
<path clip-rule="evenodd" d="M 517.816406 1075.46875 L 508.90625 1041.390625 L 537.007812 1018.75 L 550.292969 1047.171875 C 551.742188 1050.269531 552.4375 1053.792969 552.625 1057.152344 C 552.90625 1062.296875 552.390625 1067.511719 550.261719 1072.257812 C 545.855469 1082.097656 538.246094 1086.054688 527.792969 1082.011719 C 525.09375 1080.96875 519.992188 1077.363281 517.816406 1075.46875 Z M 517.816406 1075.46875 "/>
</clipPath>
<clipPath id="clip-72">
<path clip-rule="nonzero" d="M 508 1018 L 532 1018 L 532 1081 L 508 1081 Z M 508 1018 "/>
</clipPath>
<clipPath id="clip-73">
<path clip-rule="evenodd" d="M 517.816406 1075.46875 L 508.90625 1041.390625 L 537.007812 1018.75 L 550.292969 1047.171875 C 551.742188 1050.269531 552.4375 1053.792969 552.625 1057.152344 C 552.90625 1062.296875 552.390625 1067.511719 550.261719 1072.257812 C 545.855469 1082.097656 538.246094 1086.054688 527.792969 1082.011719 C 525.09375 1080.96875 519.992188 1077.363281 517.816406 1075.46875 Z M 517.816406 1075.46875 "/>
</clipPath>
<clipPath id="clip-74">
<path clip-rule="nonzero" d="M 513 1018 L 539 1018 L 539 1078 L 513 1078 Z M 513 1018 "/>
</clipPath>
<clipPath id="clip-75">
<path clip-rule="evenodd" d="M 517.816406 1075.46875 L 508.90625 1041.390625 L 537.007812 1018.75 L 550.292969 1047.171875 C 551.742188 1050.269531 552.4375 1053.792969 552.625 1057.152344 C 552.90625 1062.296875 552.390625 1067.511719 550.261719 1072.257812 C 545.855469 1082.097656 538.246094 1086.054688 527.792969 1082.011719 C 525.09375 1080.96875 519.992188 1077.363281 517.816406 1075.46875 Z M 517.816406 1075.46875 "/>
</clipPath>
<clipPath id="clip-76">
<path clip-rule="nonzero" d="M 517 1018 L 545 1018 L 545 1074 L 517 1074 Z M 517 1018 "/>
</clipPath>
<clipPath id="clip-77">
<path clip-rule="evenodd" d="M 517.816406 1075.46875 L 508.90625 1041.390625 L 537.007812 1018.75 L 550.292969 1047.171875 C 551.742188 1050.269531 552.4375 1053.792969 552.625 1057.152344 C 552.90625 1062.296875 552.390625 1067.511719 550.261719 1072.257812 C 545.855469 1082.097656 538.246094 1086.054688 527.792969 1082.011719 C 525.09375 1080.96875 519.992188 1077.363281 517.816406 1075.46875 Z M 517.816406 1075.46875 "/>
</clipPath>
<clipPath id="clip-78">
<path clip-rule="nonzero" d="M 530 1018 L 550 1018 L 550 1064 L 530 1064 Z M 530 1018 "/>
</clipPath>
<clipPath id="clip-79">
<path clip-rule="evenodd" d="M 517.816406 1075.46875 L 508.90625 1041.390625 L 537.007812 1018.75 L 550.292969 1047.171875 C 551.742188 1050.269531 552.4375 1053.792969 552.625 1057.152344 C 552.90625 1062.296875 552.390625 1067.511719 550.261719 1072.257812 C 545.855469 1082.097656 538.246094 1086.054688 527.792969 1082.011719 C 525.09375 1080.96875 519.992188 1077.363281 517.816406 1075.46875 Z M 517.816406 1075.46875 "/>
</clipPath>
<clipPath id="clip-80">
<path clip-rule="nonzero" d="M 529 1018 L 552 1018 L 552 1057 L 529 1057 Z M 529 1018 "/>
</clipPath>
<clipPath id="clip-81">
<path clip-rule="evenodd" d="M 517.816406 1075.46875 L 508.90625 1041.390625 L 537.007812 1018.75 L 550.292969 1047.171875 C 551.742188 1050.269531 552.4375 1053.792969 552.625 1057.152344 C 552.90625 1062.296875 552.390625 1067.511719 550.261719 1072.257812 C 545.855469 1082.097656 538.246094 1086.054688 527.792969 1082.011719 C 525.09375 1080.96875 519.992188 1077.363281 517.816406 1075.46875 Z M 517.816406 1075.46875 "/>
</clipPath>
<clipPath id="clip-82">
<path clip-rule="nonzero" d="M 516 1018 L 542 1018 L 542 1078 L 516 1078 Z M 516 1018 "/>
</clipPath>
<clipPath id="clip-83">
<path clip-rule="evenodd" d="M 517.816406 1075.46875 L 508.90625 1041.390625 L 537.007812 1018.75 L 550.292969 1047.171875 C 551.742188 1050.269531 552.4375 1053.792969 552.625 1057.152344 C 552.90625 1062.296875 552.390625 1067.511719 550.261719 1072.257812 C 545.855469 1082.097656 538.246094 1086.054688 527.792969 1082.011719 C 525.09375 1080.96875 519.992188 1077.363281 517.816406 1075.46875 Z M 517.816406 1075.46875 "/>
</clipPath>
<clipPath id="clip-84">
<path clip-rule="nonzero" d="M 521 1018 L 547 1018 L 547 1068 L 521 1068 Z M 521 1018 "/>
</clipPath>
<clipPath id="clip-85">
<path clip-rule="evenodd" d="M 517.816406 1075.46875 L 508.90625 1041.390625 L 537.007812 1018.75 L 550.292969 1047.171875 C 551.742188 1050.269531 552.4375 1053.792969 552.625 1057.152344 C 552.90625 1062.296875 552.390625 1067.511719 550.261719 1072.257812 C 545.855469 1082.097656 538.246094 1086.054688 527.792969 1082.011719 C 525.09375 1080.96875 519.992188 1077.363281 517.816406 1075.46875 Z M 517.816406 1075.46875 "/>
</clipPath>
<clipPath id="clip-86">
<path clip-rule="nonzero" d="M 1260 688 L 1294 688 L 1294 722 L 1260 722 Z M 1260 688 "/>
</clipPath>
<clipPath id="clip-87">
<path clip-rule="evenodd" d="M 1255.191406 740.621094 C 1252.160156 717.640625 1238.578125 720.171875 1240.640625 678.488281 C 1240.929688 672.660156 1242.699219 659.691406 1244.660156 659.890625 C 1260.800781 661.558594 1250.828125 687.03125 1261.929688 689.019531 C 1263.808594 689.359375 1265.949219 676.261719 1266.371094 671.070312 C 1267.359375 659.03125 1268.03125 647.03125 1270.539062 635.171875 C 1271.410156 631.078125 1272.28125 626.738281 1274.140625 622.949219 C 1274.730469 621.75 1275.949219 619.699219 1277.648438 620.390625 C 1281.089844 621.789062 1281.429688 628.53125 1281.769531 631.460938 C 1283.070312 642.589844 1282.339844 653.941406 1281.839844 665.101562 C 1281.660156 669.289062 1281.441406 673.488281 1281.421875 677.679688 C 1281.421875 677.910156 1281.28125 680.871094 1281.988281 680.640625 C 1282.890625 680.351562 1283.488281 678.320312 1283.789062 677.609375 C 1285.269531 674.261719 1286.519531 670.808594 1287.78125 667.378906 C 1292.441406 654.78125 1297.179688 642.238281 1303.011719 630.109375 C 1304.71875 626.539062 1306.441406 622.828125 1308.949219 619.71875 C 1309.820312 618.640625 1311.671875 616.398438 1313.351562 617.359375 C 1316.589844 619.21875 1314.96875 627.5 1314.699219 630.261719 C 1313.5 642.359375 1310.859375 654.25 1307.859375 666.019531 C 1306.878906 669.851562 1305.851562 673.691406 1305 677.550781 C 1304.941406 677.859375 1304.078125 681.058594 1305.058594 681.050781 C 1307.511719 681.019531 1311.03125 673.648438 1312.019531 672.070312 C 1318.691406 661.328125 1324.898438 650.359375 1332.671875 640.320312 C 1334.289062 638.230469 1341.449219 627.988281 1345.390625 631.070312 C 1348.589844 633.570312 1345.671875 641.191406 1344.808594 644.078125 C 1341.308594 655.710938 1335.691406 666.609375 1330.351562 677.5 C 1329.011719 680.21875 1327.710938 682.949219 1326.390625 685.671875 C 1326.121094 686.238281 1324.621094 688.550781 1325.058594 689.289062 C 1325.359375 689.789062 1327.21875 688.210938 1327.398438 688.078125 C 1330.308594 685.871094 1333.011719 683.398438 1335.78125 681.039062 C 1343.800781 674.210938 1358.558594 663.648438 1364.011719 668.410156 C 1365.738281 669.921875 1361.179688 675.589844 1356.609375 680.128906 C 1349.730469 686.96875 1340.480469 694.851562 1334.949219 702.941406 C 1328.960938 711.71875 1326.390625 724.449219 1320.191406 733.089844 C 1315.050781 740.261719 1309.101562 746.160156 1296.988281 746.179688 Z M 1255.191406 740.621094 "/>
</clipPath>
<clipPath id="clip-88">
<path clip-rule="nonzero" d="M 910 462 L 1051 462 L 1051 506 L 910 506 Z M 910 462 "/>
</clipPath>
<clipPath id="clip-89">
<path clip-rule="evenodd" d="M 888.882812 569.71875 C 886.960938 556.710938 947.589844 463.03125 975.949219 462.121094 C 1012.449219 460.949219 1071.679688 559.101562 1070.648438 569.78125 C 1065.179688 626.210938 1010.738281 673.789062 981.210938 673.871094 C 957.449219 673.941406 895.699219 632.351562 896.703125 597.539062 C 896.964844 588.441406 889.273438 572.359375 888.882812 569.71875 Z M 888.882812 569.71875 "/>
</clipPath>
</defs>
<path fill-rule="evenodd" fill="rgb(100%, 86.71875%, 82.8125%)" fill-opacity="1" d="M 1019.519531 1129.3125 C 1025.921875 1124.070312 983.351562 1068.265625 1023.628906 1084.777344 C 1031.949219 1088.1875 1106.988281 1101.84375 1114.679688 1102.753906 C 1123.238281 1103.761719 1125.121094 1112.15625 1129.289062 1118.210938 C 1139.710938 1133.308594 1145.25 1153.871094 1150.210938 1170.824219 C 1151.421875 1174.953125 1137.121094 1176.242188 1131.21875 1169.941406 C 1129.738281 1168.367188 1127.121094 1176.339844 1125.691406 1177.742188 C 1122.761719 1180.621094 1119.050781 1178.785156 1115.730469 1180.40625 C 1112.988281 1181.746094 1112.371094 1185.128906 1109.53125 1186.25 C 1105.640625 1187.78125 1102.210938 1184.734375 1098.449219 1185.035156 C 1094.378906 1185.359375 1093.480469 1190.410156 1088.960938 1190.601562 C 1083.128906 1190.851562 1078.738281 1185.632812 1073.109375 1184.789062 C 1061.949219 1183.113281 1039.148438 1191.738281 1031.050781 1178.0625 C 1030.039062 1176.351562 982.1875 1122.75 992.527344 1127.148438 C 995.453125 1128.394531 1010.921875 1140.707031 1010.921875 1137.730469 C 1010.921875 1134.105469 1019.519531 1129.3125 1019.519531 1129.3125 "/>
<g clip-path="url(#clip-0)">
<g clip-path="url(#clip-1)">
<path fill-rule="evenodd" fill="rgb(100%, 73.242188%, 52.34375%)" fill-opacity="1" d="M 1133.941406 1170.644531 C 1132.800781 1169.199219 1131.890625 1167.527344 1131.089844 1165.773438 C 1129.800781 1162.96875 1128.800781 1159.984375 1127.71875 1157.386719 C 1125.488281 1152.027344 1123.390625 1146.648438 1121.039062 1141.347656 C 1119.46875 1137.789062 1117.78125 1134.269531 1115.871094 1130.816406 C 1115.558594 1130.214844 1114.761719 1129.941406 1114.101562 1130.210938 C 1113.441406 1130.480469 1113.160156 1131.191406 1113.480469 1131.792969 C 1115.179688 1135.246094 1116.660156 1138.761719 1118.03125 1142.304688 C 1120.109375 1147.667969 1121.929688 1153.101562 1123.878906 1158.515625 C 1124.839844 1161.195312 1125.71875 1164.257812 1126.878906 1167.15625 C 1127.71875 1169.257812 1128.71875 1171.261719 1129.96875 1173.011719 C 1130.71875 1174.015625 1132.21875 1174.304688 1133.320312 1173.648438 C 1134.410156 1172.996094 1134.691406 1171.648438 1133.941406 1170.644531 "/>
</g>
</g>
<g clip-path="url(#clip-2)">
<g clip-path="url(#clip-3)">
<path fill-rule="evenodd" fill="rgb(100%, 73.242188%, 52.34375%)" fill-opacity="1" d="M 1119.140625 1180.605469 C 1118.839844 1180.300781 1118.601562 1179.933594 1118.378906 1179.546875 C 1117.910156 1178.703125 1117.53125 1177.792969 1117.089844 1177.023438 C 1116.601562 1176.140625 1116.078125 1175.277344 1115.539062 1174.417969 C 1114.738281 1173.160156 1113.910156 1171.921875 1113.078125 1170.679688 C 1110.578125 1166.960938 1108.058594 1163.304688 1105.441406 1159.703125 C 1102.808594 1156.097656 1100.089844 1152.550781 1097.21875 1149.046875 C 1096.800781 1148.496094 1095.96875 1148.351562 1095.371094 1148.722656 C 1094.769531 1149.09375 1094.640625 1149.839844 1095.058594 1150.386719 C 1097.699219 1153.976562 1100.179688 1157.597656 1102.558594 1161.273438 C 1104.949219 1164.953125 1107.238281 1168.675781 1109.5 1172.46875 C 1110.238281 1173.714844 1110.980469 1174.957031 1111.691406 1176.21875 C 1112.140625 1177.039062 1112.578125 1177.867188 1113 1178.710938 C 1113.460938 1179.648438 1113.851562 1180.777344 1114.390625 1181.773438 C 1114.710938 1182.351562 1115.078125 1182.886719 1115.5 1183.363281 C 1116.371094 1184.289062 1117.890625 1184.425781 1118.898438 1183.664062 C 1119.898438 1182.902344 1120.011719 1181.535156 1119.140625 1180.605469 "/>
</g>
</g>
<g clip-path="url(#clip-4)">
<g clip-path="url(#clip-5)">
<path fill-rule="evenodd" fill="rgb(100%, 73.242188%, 52.34375%)" fill-opacity="1" d="M 1102.378906 1186.21875 C 1101.230469 1185.375 1100.230469 1184.332031 1099.289062 1183.210938 C 1097.75 1181.347656 1096.390625 1179.300781 1094.988281 1177.523438 C 1092.03125 1173.765625 1089.148438 1169.941406 1086.039062 1166.277344 C 1083.941406 1163.800781 1081.75 1161.398438 1079.359375 1159.136719 C 1078.871094 1158.640625 1078.03125 1158.589844 1077.488281 1159.027344 C 1076.949219 1159.460938 1076.921875 1160.21875 1077.410156 1160.71875 C 1079.589844 1163.019531 1081.558594 1165.449219 1083.441406 1167.941406 C 1086.289062 1171.726562 1088.910156 1175.65625 1091.609375 1179.523438 C 1092.921875 1181.398438 1094.171875 1183.542969 1095.628906 1185.511719 C 1096.710938 1186.976562 1097.910156 1188.335938 1099.28125 1189.46875 C 1100.289062 1190.265625 1101.808594 1190.183594 1102.671875 1189.289062 C 1103.519531 1188.390625 1103.390625 1187.015625 1102.378906 1186.21875 "/>
</g>
</g>
<path fill-rule="evenodd" fill="rgb(100%, 86.71875%, 82.8125%)" fill-opacity="1" d="M 1741.308594 1190.609375 L 258.695312 1190.609375 L 258.695312 1308.390625 L 1741.308594 1308.390625 L 1741.308594 1190.609375 "/>
<path fill-rule="evenodd" fill="rgb(98.242188%, 46.99707%, 40.989685%)" fill-opacity="1" d="M 1632.289062 1114.074219 C 1631.011719 1111.800781 1630.199219 1108.976562 1629.628906 1106.003906 C 1628.730469 1101.253906 1628.449219 1096.125 1628.058594 1091.949219 C 1627.390625 1084.683594 1627.421875 1077.503906 1627.769531 1070.359375 C 1628.621094 1053.285156 1631.328125 1036.421875 1631.171875 1019.15625 C 1631.128906 1014.136719 1630.558594 1009.285156 1629.679688 1004.519531 C 1627.671875 993.628906 1624.058594 983.210938 1621.710938 972.308594 C 1620.199219 965.261719 1619.328125 958.289062 1618.960938 951.28125 C 1618.601562 944.230469 1618.75 937.140625 1619.28125 929.878906 C 1619.328125 929.261719 1618.960938 928.699219 1618.46875 928.640625 C 1617.96875 928.578125 1617.53125 929.039062 1617.480469 929.660156 C 1616.871094 937.039062 1616.648438 944.25 1616.960938 951.429688 C 1617.261719 958.621094 1618.089844 965.78125 1619.578125 973.019531 C 1621.820312 983.921875 1625.320312 994.339844 1627.21875 1005.214844 C 1628.019531 1009.765625 1628.519531 1014.394531 1628.519531 1019.175781 C 1628.511719 1036.363281 1625.648438 1053.105469 1624.648438 1070.09375 C 1624.21875 1077.46875 1624.128906 1084.890625 1624.761719 1092.410156 C 1625.121094 1096.738281 1625.371094 1102.054688 1626.261719 1106.992188 C 1626.898438 1110.550781 1627.878906 1113.90625 1629.390625 1116.644531 C 1629.949219 1117.652344 1631.058594 1117.894531 1631.859375 1117.1875 C 1632.660156 1116.476562 1632.859375 1115.085938 1632.289062 1114.074219 "/>
<path fill-rule="evenodd" fill="rgb(98.242188%, 46.99707%, 40.989685%)" fill-opacity="1" d="M 1618.089844 931.230469 C 1615.441406 929.078125 1614.390625 923.488281 1613.691406 920.070312 C 1611.78125 910.710938 1613.878906 900.960938 1618.53125 893.21875 C 1621.230469 888.71875 1624.640625 884.960938 1627.929688 881.089844 C 1630.160156 878.46875 1632.371094 875.769531 1634.328125 872.859375 C 1634.808594 872.148438 1635.25 871.421875 1635.710938 870.699219 C 1635.808594 870.550781 1636.078125 870.050781 1636.28125 870.058594 C 1636.519531 870.070312 1636.46875 871.191406 1636.46875 871.328125 C 1636.480469 872.519531 1636.429688 873.699219 1636.390625 874.878906 C 1636.21875 879.789062 1636.179688 884.699219 1636.308594 889.609375 C 1636.429688 893.980469 1636.679688 898.339844 1636.921875 902.710938 C 1637.128906 906.78125 1637.378906 910.910156 1636.589844 914.921875 C 1634.839844 923.75 1626.480469 933.671875 1618.089844 931.230469 "/>
<path fill-rule="evenodd" fill="rgb(98.242188%, 46.99707%, 40.989685%)" fill-opacity="1" d="M 1619.261719 962.910156 C 1618.421875 959.300781 1620.449219 955.058594 1621.691406 951.949219 C 1625.71875 941.851562 1632.191406 933.820312 1640.558594 928.769531 C 1643.851562 926.789062 1647.261719 925.328125 1650.890625 924.539062 C 1651.511719 924.398438 1653.578125 923.679688 1654.019531 924.621094 C 1654.46875 925.570312 1653.46875 927.539062 1653.191406 928.378906 C 1651.980469 931.929688 1650.691406 935.421875 1649.488281 938.96875 C 1646.390625 948.210938 1643.800781 958.941406 1636.269531 964.539062 C 1631.429688 968.128906 1623.101562 968.980469 1619.261719 962.910156 "/>
<path fill-rule="evenodd" fill="rgb(98.242188%, 46.99707%, 40.989685%)" fill-opacity="1" d="M 1630.109375 1027.339844 C 1628.5 1024.125 1629.519531 1019.394531 1630.019531 1016.003906 C 1631.671875 1004.988281 1636.128906 995.199219 1643.078125 987.691406 C 1645.808594 984.738281 1648.769531 982.25 1652.089844 980.351562 C 1652.660156 980.019531 1654.5 978.660156 1655.140625 979.429688 C 1655.78125 980.210938 1655.25 982.429688 1655.160156 983.328125 C 1654.789062 987.121094 1654.308594 990.910156 1653.949219 994.710938 C 1653.011719 1004.597656 1652.890625 1015.757812 1646.871094 1023.535156 C 1643.011719 1028.527344 1635.160156 1031.980469 1630.109375 1027.339844 "/>
<path fill-rule="evenodd" fill="rgb(98.242188%, 46.99707%, 40.989685%)" fill-opacity="1" d="M 1626.160156 1084.394531 C 1624.808594 1081.015625 1626.191406 1076.417969 1626.960938 1073.097656 C 1629.449219 1062.3125 1634.648438 1053.0625 1642.160156 1046.351562 C 1645.109375 1043.714844 1648.238281 1041.566406 1651.699219 1040.039062 C 1652.300781 1039.777344 1654.230469 1038.632812 1654.800781 1039.46875 C 1655.390625 1040.3125 1654.691406 1042.460938 1654.53125 1043.347656 C 1653.859375 1047.085938 1653.089844 1050.796875 1652.441406 1054.539062 C 1650.730469 1064.285156 1649.75 1075.386719 1643.148438 1082.464844 C 1638.910156 1087.007812 1630.828125 1089.574219 1626.160156 1084.394531 "/>
<path fill-rule="evenodd" fill="rgb(98.242188%, 46.99707%, 40.989685%)" fill-opacity="1" d="M 1620.449219 972.070312 C 1617.511719 973.359375 1611.101562 968.519531 1608.398438 967.300781 C 1599.640625 963.320312 1592.410156 956.269531 1587.519531 946.71875 C 1585.589844 942.96875 1584.101562 939.039062 1583.148438 934.789062 C 1582.980469 934.058594 1582.210938 931.648438 1582.960938 931.050781 C 1583.71875 930.441406 1585.449219 931.46875 1586.171875 931.738281 C 1589.230469 932.890625 1592.25 934.148438 1595.308594 935.28125 C 1603.289062 938.21875 1608 938.238281 1613.28125 946.738281 C 1616.671875 952.199219 1622.210938 969.878906 1620.449219 972.070312 "/>
<path fill-rule="evenodd" fill="rgb(98.242188%, 46.99707%, 40.989685%)" fill-opacity="1" d="M 1630.5 1015.71875 C 1627.558594 1017.007812 1621.148438 1012.175781 1618.460938 1010.949219 C 1609.691406 1006.972656 1602.460938 999.921875 1597.570312 990.378906 C 1595.648438 986.621094 1594.148438 982.691406 1593.199219 978.441406 C 1593.039062 977.710938 1592.261719 975.308594 1593.019531 974.699219 C 1593.78125 974.089844 1595.5 975.121094 1596.230469 975.390625 C 1599.28125 976.539062 1602.308594 977.800781 1605.371094 978.929688 C 1613.339844 981.871094 1618.050781 981.890625 1623.339844 990.398438 C 1626.730469 995.859375 1632.261719 1013.53125 1630.5 1015.71875 "/>
<path fill-rule="evenodd" fill="rgb(98.242188%, 46.99707%, 40.989685%)" fill-opacity="1" d="M 1626.609375 1066.972656 C 1623.671875 1068.261719 1617.261719 1063.429688 1614.558594 1062.203125 C 1605.800781 1058.222656 1598.570312 1051.175781 1593.679688 1041.632812 C 1591.75 1037.878906 1590.261719 1033.945312 1589.308594 1029.695312 C 1589.140625 1028.964844 1588.371094 1026.5625 1589.121094 1025.957031 C 1589.878906 1025.34375 1591.609375 1026.378906 1592.328125 1026.648438 C 1595.390625 1027.792969 1598.410156 1029.054688 1601.480469 1030.183594 C 1609.441406 1033.128906 1614.160156 1033.144531 1619.441406 1041.648438 C 1622.828125 1047.109375 1628.371094 1064.785156 1626.609375 1066.972656 "/>
<path fill-rule="evenodd" fill="rgb(98.242188%, 46.99707%, 40.989685%)" fill-opacity="1" d="M 1627.148438 1104.109375 C 1624.53125 1106.167969 1617.371094 1103.207031 1614.511719 1102.746094 C 1605.210938 1101.257812 1596.828125 1096.363281 1590.238281 1088.402344 C 1587.648438 1085.269531 1585.441406 1081.851562 1583.710938 1077.96875 C 1583.410156 1077.304688 1582.191406 1075.171875 1582.808594 1074.378906 C 1583.429688 1073.578125 1585.308594 1074.113281 1586.070312 1074.179688 C 1589.261719 1074.460938 1592.449219 1074.867188 1595.648438 1075.132812 C 1603.96875 1075.828125 1608.558594 1074.5625 1615.328125 1081.40625 C 1619.679688 1085.796875 1628.441406 1101.503906 1627.148438 1104.109375 "/>
<path fill-rule="evenodd" fill="rgb(98.242188%, 46.99707%, 40.989685%)" fill-opacity="1" d="M 1642.371094 1113.09375 C 1643.078125 1095.03125 1641.5 1077.773438 1642.410156 1060.300781 C 1642.988281 1049.269531 1644.558594 1038.152344 1648.390625 1026.6875 C 1655.148438 1006.449219 1668.941406 985.808594 1674.339844 963.929688 C 1676.789062 954.019531 1677.539062 943.851562 1675.230469 933.351562 C 1675.101562 932.75 1674.601562 932.390625 1674.121094 932.550781 C 1673.640625 932.71875 1673.351562 933.339844 1673.480469 933.949219 C 1675.601562 944.011719 1674.78125 953.699219 1672.351562 963.140625 C 1666.769531 984.878906 1652.800781 1005.246094 1645.871094 1025.332031 C 1641.800781 1037.140625 1640.058594 1048.621094 1639.359375 1060.027344 C 1638.289062 1077.492188 1639.699219 1094.785156 1638.820312 1112.847656 C 1638.769531 1114.078125 1639.519531 1115.132812 1640.488281 1115.199219 C 1641.46875 1115.269531 1642.308594 1114.324219 1642.371094 1113.09375 "/>
<path fill-rule="evenodd" fill="rgb(98.242188%, 46.99707%, 40.989685%)" fill-opacity="1" d="M 1674.308594 934.261719 C 1672.46875 934.261719 1670.941406 932.929688 1669.679688 931.429688 C 1666.390625 927.488281 1665.089844 921.871094 1665.160156 916.421875 C 1665.308594 904.398438 1670.980469 894.449219 1677.398438 885.761719 C 1678.828125 883.828125 1680.308594 881.96875 1681.808594 880.128906 C 1682.46875 879.320312 1683.308594 877.941406 1684.21875 877.5 C 1684.648438 877.289062 1684.210938 878.730469 1684.179688 878.839844 C 1683.730469 880.371094 1683.179688 881.859375 1682.671875 883.359375 C 1681.230469 887.601562 1680.089844 891.921875 1679.828125 896.511719 C 1679.300781 905.988281 1681.789062 915.339844 1680.039062 924.78125 C 1679.390625 928.261719 1677.019531 932.269531 1674.308594 934.261719 "/>
<path fill-rule="evenodd" fill="rgb(98.242188%, 46.99707%, 40.989685%)" fill-opacity="1" d="M 1673.558594 963.371094 C 1673.609375 962.359375 1676.148438 957.921875 1676.570312 957.089844 C 1677.628906 954.988281 1678.859375 953.011719 1680.171875 951.128906 C 1685.941406 942.761719 1693.058594 937.988281 1702.210938 937.609375 C 1704.851562 937.5 1707.5 937.578125 1710.128906 937.679688 C 1710.648438 937.699219 1712.609375 937.398438 1712.910156 938.128906 C 1713.238281 938.929688 1711.808594 940.550781 1711.46875 941.039062 C 1709.460938 943.949219 1707.441406 946.839844 1705.441406 949.75 C 1699.378906 958.519531 1690.851562 969.199219 1680.238281 966.289062 C 1678.679688 965.871094 1674.941406 964.308594 1673.558594 963.371094 "/>
<path fill-rule="evenodd" fill="rgb(98.242188%, 46.99707%, 40.989685%)" fill-opacity="1" d="M 1662.121094 992.238281 C 1662.519531 991.339844 1666.359375 988.539062 1667.03125 987.988281 C 1668.710938 986.601562 1670.53125 985.398438 1672.359375 984.320312 C 1680.511719 979.519531 1688.640625 978.671875 1697.121094 982.808594 C 1699.558594 984.011719 1701.941406 985.378906 1704.308594 986.761719 C 1704.78125 987.039062 1706.671875 987.730469 1706.691406 988.53125 C 1706.710938 989.429688 1704.851562 990.210938 1704.371094 990.488281 C 1701.539062 992.148438 1698.699219 993.800781 1695.871094 995.460938 C 1687.328125 1000.484375 1675.878906 1006.035156 1667.199219 998.179688 C 1665.929688 997.03125 1663.050781 993.769531 1662.121094 992.238281 "/>
<path fill-rule="evenodd" fill="rgb(98.242188%, 46.99707%, 40.989685%)" fill-opacity="1" d="M 1642.460938 1043.5625 C 1642.640625 1042.269531 1646.339844 1036.949219 1646.960938 1035.953125 C 1648.53125 1033.421875 1650.308594 1031.070312 1652.148438 1028.847656 C 1660.351562 1018.988281 1669.820312 1013.988281 1681.320312 1014.964844 C 1684.628906 1015.246094 1687.929688 1015.785156 1691.21875 1016.335938 C 1691.859375 1016.445312 1694.351562 1016.371094 1694.640625 1017.359375 C 1694.960938 1018.445312 1692.980469 1020.304688 1692.5 1020.890625 C 1689.640625 1024.308594 1686.78125 1027.714844 1683.929688 1031.136719 C 1675.328125 1041.46875 1663.421875 1053.863281 1650.46875 1048.40625 C 1648.578125 1047.609375 1644.070312 1044.996094 1642.460938 1043.5625 "/>
<path fill-rule="evenodd" fill="rgb(98.242188%, 46.99707%, 40.989685%)" fill-opacity="1" d="M 1640.25 1098.640625 C 1640.070312 1097.347656 1642.148438 1090.894531 1642.46875 1089.714844 C 1643.28125 1086.71875 1644.339844 1083.8125 1645.488281 1081 C 1650.628906 1068.53125 1658.261719 1060.191406 1669.421875 1056.734375 C 1672.628906 1055.738281 1675.898438 1054.988281 1679.160156 1054.261719 C 1679.808594 1054.117188 1682.140625 1053.101562 1682.679688 1053.925781 C 1683.269531 1054.832031 1681.898438 1057.347656 1681.589844 1058.089844 C 1679.808594 1062.414062 1678.011719 1066.734375 1676.21875 1071.0625 C 1670.828125 1084.128906 1662.859375 1100.414062 1649.128906 1100.175781 C 1647.128906 1100.140625 1642.160156 1099.386719 1640.25 1098.640625 "/>
<path fill-rule="evenodd" fill="rgb(98.242188%, 46.99707%, 40.989685%)" fill-opacity="1" d="M 1671.058594 970.148438 C 1670.238281 970.429688 1665.878906 969.058594 1665.089844 968.871094 C 1663.078125 968.378906 1661.109375 967.648438 1659.179688 966.820312 C 1650.640625 963.121094 1644.488281 956.710938 1641.128906 946.550781 C 1640.160156 943.621094 1639.339844 940.609375 1638.539062 937.621094 C 1638.378906 937.03125 1637.488281 934.921875 1637.960938 934.339844 C 1638.480469 933.710938 1640.238281 934.769531 1640.75 934.988281 C 1643.710938 936.28125 1646.671875 937.578125 1649.640625 938.859375 C 1658.589844 942.738281 1669.878906 948.761719 1671.128906 961.671875 C 1671.320312 963.558594 1671.339844 968.289062 1671.058594 970.148438 "/>
<path fill-rule="evenodd" fill="rgb(98.242188%, 46.99707%, 40.989685%)" fill-opacity="1" d="M 1648.839844 1020.679688 C 1648 1020.582031 1644.378906 1017.378906 1643.699219 1016.851562 C 1641.980469 1015.511719 1640.378906 1013.957031 1638.851562 1012.332031 C 1632.058594 1005.125 1628.339844 996.449219 1628.371094 985.519531 C 1628.378906 982.371094 1628.550781 979.21875 1628.738281 976.078125 C 1628.769531 975.460938 1628.601562 973.109375 1629.21875 972.789062 C 1629.898438 972.421875 1631.199219 974.191406 1631.609375 974.621094 C 1633.960938 977.128906 1636.308594 979.640625 1638.660156 982.148438 C 1645.769531 989.710938 1654.390625 1000.285156 1651.550781 1012.835938 C 1651.128906 1014.667969 1649.679688 1019.078125 1648.839844 1020.679688 "/>
<path fill-rule="evenodd" fill="rgb(98.242188%, 46.99707%, 40.989685%)" fill-opacity="1" d="M 1638.539062 1076.890625 C 1637.511719 1076.773438 1633.039062 1073.015625 1632.210938 1072.394531 C 1630.089844 1070.820312 1628.109375 1069 1626.21875 1067.09375 C 1617.859375 1058.636719 1613.269531 1048.476562 1613.28125 1035.679688 C 1613.289062 1031.996094 1613.488281 1028.308594 1613.710938 1024.632812 C 1613.761719 1023.910156 1613.539062 1021.15625 1614.300781 1020.777344 C 1615.140625 1020.355469 1616.75 1022.421875 1617.238281 1022.925781 C 1620.140625 1025.867188 1623.039062 1028.820312 1625.941406 1031.761719 C 1634.710938 1040.628906 1645.328125 1053.035156 1641.851562 1067.714844 C 1641.351562 1069.859375 1639.578125 1075.019531 1638.539062 1076.890625 "/>
<path fill-rule="evenodd" fill="rgb(47.801208%, 61.521912%, 72.459412%)" fill-opacity="1" d="M 1610.699219 1109.792969 L 1665.890625 1109.527344 C 1665.890625 1109.527344 1661.679688 1146.882812 1671.308594 1152.6875 C 1705.109375 1173.0625 1691.890625 1235.808594 1645.171875 1237.675781 C 1585.828125 1240.046875 1578.328125 1180.605469 1607.589844 1154.355469 C 1615.929688 1146.871094 1610.699219 1109.792969 1610.699219 1109.792969 "/>
<path fill-rule="evenodd" fill="rgb(98.242188%, 46.99707%, 40.989685%)" fill-opacity="1" d="M 1515.179688 1219.910156 C 1508.960938 1230.027344 1499.878906 1237.269531 1486.648438 1237.71875 C 1436.25 1239.421875 1441.328125 1151.738281 1441.328125 1151.738281 L 1528.390625 1151.222656 C 1528.390625 1151.222656 1528.691406 1156.722656 1528.371094 1164.953125 C 1531.128906 1163.601562 1534.238281 1163.113281 1537.609375 1163.929688 C 1539.390625 1164.359375 1541.21875 1165.554688 1542.878906 1167.339844 C 1545.628906 1170.3125 1547.988281 1175.042969 1549.03125 1177.617188 C 1554.109375 1190.265625 1550.550781 1204.320312 1540.5 1212.65625 C 1535.648438 1216.675781 1530.199219 1219.066406 1524.199219 1219.835938 C 1521.488281 1220.179688 1518.28125 1220.328125 1515.179688 1219.910156 Z M 1519.609375 1211.171875 C 1520.871094 1211.148438 1522.089844 1211.039062 1523.191406 1210.898438 C 1527.660156 1210.324219 1531.710938 1208.539062 1535.308594 1205.550781 C 1542.308594 1199.746094 1544.808594 1189.96875 1541.269531 1181.160156 C 1540.609375 1179.527344 1539.261719 1176.695312 1537.601562 1174.535156 C 1536.980469 1173.726562 1536.441406 1172.878906 1535.738281 1172.707031 C 1533.21875 1172.097656 1531.101562 1173.167969 1529.398438 1174.828125 C 1528.710938 1175.496094 1528.089844 1176.253906 1527.519531 1177.066406 C 1526.421875 1187.832031 1524.148438 1200.324219 1519.609375 1211.171875 "/>
<path fill-rule="evenodd" fill="rgb(100%, 73.242188%, 52.34375%)" fill-opacity="1" d="M 375.199219 986.890625 C 360.433594 994.660156 358.835938 997.140625 344.847656 990.070312 L 332.125 1186.117188 C 345.832031 1197.199219 360.238281 1196.394531 375.199219 1186.117188 L 375.199219 986.890625 "/>
<path fill-rule="evenodd" fill="rgb(100%, 86.71875%, 82.8125%)" fill-opacity="1" d="M 323.199219 1017.316406 L 338.867188 985.769531 L 374.929688 987.160156 L 366.277344 1017.316406 C 365.332031 1020.601562 363.542969 1023.71875 361.476562 1026.371094 C 358.3125 1030.433594 354.496094 1034.027344 349.773438 1036.210938 C 339.988281 1040.734375 331.652344 1038.71875 326.421875 1028.804688 C 325.074219 1026.242188 323.597656 1020.175781 323.199219 1017.316406 "/>
<g clip-path="url(#clip-6)">
<g clip-path="url(#clip-7)">
<path fill-rule="evenodd" fill="rgb(100%, 73.242188%, 52.34375%)" fill-opacity="1" d="M 326.554688 1024.523438 C 326.519531 1023.757812 326.957031 1022.464844 327.578125 1020.949219 C 329.144531 1017.121094 331.964844 1012.03125 332.878906 1010.113281 C 338.285156 998.761719 343.539062 987.320312 349.214844 976.089844 C 349.402344 975.71875 349.253906 975.261719 348.878906 975.070312 C 348.503906 974.890625 348.046875 975.039062 347.859375 975.410156 C 342.175781 986.648438 336.921875 998.089844 331.507812 1009.460938 C 330.585938 1011.394531 327.75 1016.519531 326.171875 1020.375 C 325.445312 1022.152344 324.996094 1023.691406 325.035156 1024.589844 C 325.054688 1025.007812 325.410156 1025.332031 325.828125 1025.3125 C 326.246094 1025.296875 326.570312 1024.941406 326.554688 1024.523438 "/>
</g>
</g>
<g clip-path="url(#clip-8)">
<g clip-path="url(#clip-9)">
<path fill-rule="evenodd" fill="rgb(100%, 73.242188%, 52.34375%)" fill-opacity="1" d="M 331.261719 1029.398438 C 331.4375 1025.121094 336.089844 1015.066406 337.664062 1010.90625 C 342.960938 996.929688 348.53125 983.070312 354.859375 969.519531 C 355.035156 969.140625 354.871094 968.691406 354.492188 968.511719 C 354.113281 968.328125 353.660156 968.488281 353.484375 968.871094 C 347.136719 982.460938 341.554688 996.351562 336.242188 1010.371094 C 334.628906 1014.632812 329.925781 1024.949219 329.742188 1029.335938 C 329.726562 1029.753906 330.050781 1030.109375 330.46875 1030.125 C 330.890625 1030.144531 331.242188 1029.816406 331.261719 1029.398438 "/>
</g>
</g>
<g clip-path="url(#clip-10)">
<g clip-path="url(#clip-11)">
<path fill-rule="evenodd" fill="rgb(100%, 73.242188%, 52.34375%)" fill-opacity="1" d="M 337.847656 1031.320312 C 338.507812 1024.46875 342.183594 1016.308594 344.382812 1009.820312 C 348.753906 996.941406 353.386719 984.128906 358.683594 971.601562 C 358.84375 971.210938 358.664062 970.769531 358.277344 970.609375 C 357.890625 970.441406 357.445312 970.621094 357.28125 971.011719 C 351.976562 983.578125 347.328125 996.410156 342.945312 1009.332031 C 340.710938 1015.921875 337.003906 1024.21875 336.335938 1031.175781 C 336.296875 1031.59375 336.601562 1031.964844 337.019531 1032.007812 C 337.4375 1032.046875 337.808594 1031.738281 337.847656 1031.320312 "/>
</g>
</g>
<g clip-path="url(#clip-12)">
<g clip-path="url(#clip-13)">
<path fill-rule="evenodd" fill="rgb(100%, 73.242188%, 52.34375%)" fill-opacity="1" d="M 345.792969 1032.289062 C 346.699219 1025.335938 351.324219 1015.109375 353.738281 1008.453125 C 359.246094 993.261719 364.914062 978.101562 371.324219 963.269531 C 371.488281 962.878906 371.3125 962.441406 370.929688 962.269531 C 370.542969 962.101562 370.097656 962.28125 369.929688 962.660156 C 363.507812 977.53125 357.828125 992.71875 352.3125 1007.9375 C 349.867188 1014.679688 345.207031 1025.046875 344.289062 1032.09375 C 344.234375 1032.507812 344.527344 1032.890625 344.941406 1032.945312 C 345.359375 1032.996094 345.738281 1032.703125 345.792969 1032.289062 "/>
</g>
</g>
<g clip-path="url(#clip-14)">
<g clip-path="url(#clip-15)">
<path fill-rule="evenodd" fill="rgb(100%, 73.242188%, 52.34375%)" fill-opacity="1" d="M 355.519531 1027.917969 C 356.238281 1023.433594 358.28125 1019.054688 359.78125 1014.800781 C 363.453125 1004.390625 367.292969 994.050781 371.207031 983.730469 C 371.355469 983.339844 371.15625 982.898438 370.765625 982.75 C 370.375 982.601562 369.9375 982.800781 369.785156 983.191406 C 365.867188 993.519531 362.023438 1003.875 358.351562 1014.292969 C 356.820312 1018.632812 354.75 1023.105469 354.019531 1027.679688 C 353.953125 1028.09375 354.234375 1028.480469 354.648438 1028.546875 C 355.0625 1028.613281 355.453125 1028.332031 355.519531 1027.917969 "/>
</g>
</g>
<g clip-path="url(#clip-16)">
<g clip-path="url(#clip-17)">
<path fill-rule="evenodd" fill="rgb(100%, 73.242188%, 52.34375%)" fill-opacity="1" d="M 361.699219 1023.988281 C 362.039062 1019.78125 366.476562 1010.789062 368.015625 1006.5625 C 372.601562 993.941406 377.421875 981.421875 382.628906 969.039062 C 382.789062 968.648438 382.609375 968.210938 382.222656 968.039062 C 381.835938 967.878906 381.390625 968.058594 381.226562 968.449219 C 376.011719 980.851562 371.183594 993.398438 366.585938 1006.046875 C 365.019531 1010.363281 360.53125 1019.566406 360.183594 1023.867188 C 360.148438 1024.285156 360.460938 1024.652344 360.878906 1024.683594 C 361.296875 1024.71875 361.664062 1024.40625 361.699219 1023.988281 "/>
</g>
</g>
<g clip-path="url(#clip-18)">
<g clip-path="url(#clip-19)">
<path fill-rule="evenodd" fill="rgb(100%, 73.242188%, 52.34375%)" fill-opacity="1" d="M 340.773438 1033.238281 C 341.800781 1026.035156 346.625 1015.570312 349.292969 1008.765625 C 354.675781 995.03125 360.078125 981.289062 366.429688 967.96875 C 366.609375 967.589844 366.449219 967.128906 366.070312 966.949219 C 365.691406 966.769531 365.238281 966.941406 365.058594 967.308594 C 358.691406 980.671875 353.273438 994.441406 347.878906 1008.210938 C 345.175781 1015.109375 340.3125 1025.722656 339.269531 1033.023438 C 339.210938 1033.441406 339.496094 1033.824219 339.914062 1033.882812 C 340.328125 1033.941406 340.714844 1033.65625 340.773438 1033.238281 "/>
</g>
</g>
<g clip-path="url(#clip-20)">
<g clip-path="url(#clip-21)">
<path fill-rule="evenodd" fill="rgb(100%, 73.242188%, 52.34375%)" fill-opacity="1" d="M 350.398438 1029.175781 C 350.28125 1028.164062 350.648438 1026.484375 351.21875 1024.53125 C 352.625 1019.710938 355.335938 1013.347656 356.226562 1010.882812 C 361.808594 995.449219 367.753906 980.089844 374.789062 965.261719 C 374.96875 964.878906 374.808594 964.429688 374.429688 964.25 C 374.050781 964.070312 373.597656 964.230469 373.417969 964.609375 C 366.363281 979.480469 360.398438 994.890625 354.800781 1010.363281 C 353.902344 1012.847656 351.175781 1019.253906 349.761719 1024.109375 C 349.121094 1026.304688 348.757812 1028.207031 348.890625 1029.347656 C 348.9375 1029.765625 349.3125 1030.0625 349.730469 1030.015625 C 350.144531 1029.96875 350.445312 1029.59375 350.398438 1029.175781 "/>
</g>
</g>
<path fill-rule="evenodd" fill="rgb(100%, 73.242188%, 52.34375%)" fill-opacity="1" d="M 366.277344 1017.316406 C 351.511719 1025.078125 337.1875 1024.386719 323.199219 1017.316406 L 323.199219 1216.539062 C 336.90625 1227.621094 351.3125 1226.816406 366.277344 1216.539062 L 366.277344 1017.316406 "/>
<path fill-rule="evenodd" fill="rgb(47.801208%, 61.521912%, 72.459412%)" fill-opacity="1" d="M 418.277344 985.769531 C 403.511719 993.53125 401.910156 996.019531 387.925781 988.949219 L 375.199219 1184.992188 C 388.90625 1196.078125 403.3125 1195.273438 418.277344 1184.992188 L 418.277344 985.769531 "/>
<path fill-rule="evenodd" fill="rgb(100%, 86.71875%, 82.8125%)" fill-opacity="1" d="M 366.277344 1017.316406 L 381.945312 985.769531 L 418.003906 987.160156 L 409.351562 1017.316406 C 408.410156 1020.601562 406.617188 1023.71875 404.554688 1026.371094 C 401.386719 1030.433594 397.570312 1034.027344 392.847656 1036.210938 C 383.0625 1040.734375 374.726562 1038.71875 369.5 1028.804688 C 368.148438 1026.242188 366.671875 1020.175781 366.277344 1017.316406 "/>
<g clip-path="url(#clip-22)">
<g clip-path="url(#clip-23)">
<path fill-rule="evenodd" fill="rgb(47.801208%, 61.521912%, 72.459412%)" fill-opacity="1" d="M 369.628906 1024.523438 C 369.59375 1023.757812 370.03125 1022.464844 370.652344 1020.949219 C 372.21875 1017.121094 375.039062 1012.03125 375.953125 1010.113281 C 381.363281 998.761719 386.613281 987.320312 392.289062 976.089844 C 392.476562 975.71875 392.328125 975.261719 391.953125 975.070312 C 391.578125 974.890625 391.121094 975.039062 390.933594 975.410156 C 385.253906 986.648438 379.996094 998.089844 374.582031 1009.460938 C 373.660156 1011.394531 370.824219 1016.519531 369.246094 1020.375 C 368.519531 1022.152344 368.070312 1023.691406 368.113281 1024.589844 C 368.128906 1025.007812 368.484375 1025.332031 368.902344 1025.3125 C 369.324219 1025.296875 369.648438 1024.941406 369.628906 1024.523438 "/>
</g>
</g>
<g clip-path="url(#clip-24)">
<g clip-path="url(#clip-25)">
<path fill-rule="evenodd" fill="rgb(47.801208%, 61.521912%, 72.459412%)" fill-opacity="1" d="M 374.335938 1029.398438 C 374.515625 1025.121094 379.164062 1015.066406 380.738281 1010.90625 C 386.035156 996.929688 391.605469 983.070312 397.933594 969.519531 C 398.113281 969.140625 397.945312 968.691406 397.566406 968.511719 C 397.1875 968.328125 396.734375 968.488281 396.558594 968.871094 C 390.214844 982.460938 384.628906 996.351562 379.320312 1010.371094 C 377.703125 1014.632812 373 1024.949219 372.820312 1029.335938 C 372.800781 1029.753906 373.128906 1030.109375 373.546875 1030.125 C 373.964844 1030.144531 374.316406 1029.816406 374.335938 1029.398438 "/>
</g>
</g>
<g clip-path="url(#clip-26)">
<g clip-path="url(#clip-27)">
<path fill-rule="evenodd" fill="rgb(47.801208%, 61.521912%, 72.459412%)" fill-opacity="1" d="M 380.921875 1031.320312 C 381.582031 1024.46875 385.257812 1016.308594 387.460938 1009.820312 C 391.828125 996.941406 396.464844 984.128906 401.757812 971.601562 C 401.921875 971.210938 401.738281 970.769531 401.355469 970.609375 C 400.96875 970.441406 400.523438 970.621094 400.359375 971.011719 C 395.050781 983.578125 390.402344 996.410156 386.019531 1009.332031 C 383.785156 1015.921875 380.082031 1024.21875 379.410156 1031.175781 C 379.371094 1031.59375 379.675781 1031.964844 380.09375 1032.007812 C 380.511719 1032.046875 380.882812 1031.738281 380.921875 1031.320312 "/>
</g>
</g>
<g clip-path="url(#clip-28)">
<g clip-path="url(#clip-29)">
<path fill-rule="evenodd" fill="rgb(47.801208%, 61.521912%, 72.459412%)" fill-opacity="1" d="M 388.871094 1032.289062 C 389.777344 1025.335938 394.402344 1015.109375 396.8125 1008.453125 C 402.320312 993.261719 407.988281 978.101562 414.398438 963.269531 C 414.566406 962.878906 414.386719 962.441406 414.003906 962.269531 C 413.617188 962.101562 413.171875 962.28125 413.003906 962.660156 C 406.582031 977.53125 400.902344 992.71875 395.386719 1007.9375 C 392.941406 1014.679688 388.28125 1025.046875 387.363281 1032.09375 C 387.308594 1032.507812 387.601562 1032.890625 388.019531 1032.945312 C 388.433594 1032.996094 388.816406 1032.703125 388.871094 1032.289062 "/>
</g>
</g>
<g clip-path="url(#clip-30)">
<g clip-path="url(#clip-31)">
<path fill-rule="evenodd" fill="rgb(47.801208%, 61.521912%, 72.459412%)" fill-opacity="1" d="M 398.59375 1027.917969 C 399.3125 1023.433594 401.355469 1019.054688 402.859375 1014.800781 C 406.527344 1004.390625 410.367188 994.050781 414.28125 983.730469 C 414.429688 983.339844 414.234375 982.898438 413.84375 982.75 C 413.449219 982.601562 413.011719 982.800781 412.863281 983.191406 C 408.945312 993.519531 405.101562 1003.875 401.425781 1014.292969 C 399.894531 1018.632812 397.828125 1023.105469 397.09375 1027.679688 C 397.027344 1028.09375 397.3125 1028.480469 397.726562 1028.546875 C 398.140625 1028.613281 398.527344 1028.332031 398.59375 1027.917969 "/>
</g>
</g>
<g clip-path="url(#clip-32)">
<g clip-path="url(#clip-33)">
<path fill-rule="evenodd" fill="rgb(47.801208%, 61.521912%, 72.459412%)" fill-opacity="1" d="M 404.773438 1023.988281 C 405.113281 1019.78125 409.554688 1010.789062 411.089844 1006.5625 C 415.675781 993.941406 420.496094 981.421875 425.703125 969.039062 C 425.867188 968.648438 425.683594 968.210938 425.296875 968.039062 C 424.910156 967.878906 424.464844 968.058594 424.304688 968.449219 C 419.085938 980.851562 414.257812 993.398438 409.660156 1006.046875 C 408.09375 1010.363281 403.609375 1019.566406 403.261719 1023.867188 C 403.226562 1024.285156 403.535156 1024.652344 403.953125 1024.683594 C 404.371094 1024.71875 404.738281 1024.40625 404.773438 1023.988281 "/>
</g>
</g>
<g clip-path="url(#clip-34)">
<g clip-path="url(#clip-35)">
<path fill-rule="evenodd" fill="rgb(47.801208%, 61.521912%, 72.459412%)" fill-opacity="1" d="M 383.847656 1033.238281 C 384.878906 1026.035156 389.699219 1015.570312 392.367188 1008.765625 C 397.75 995.03125 403.15625 981.289062 409.503906 967.96875 C 409.683594 967.589844 409.523438 967.128906 409.144531 966.949219 C 408.769531 966.769531 408.3125 966.941406 408.132812 967.308594 C 401.769531 980.671875 396.347656 994.441406 390.953125 1008.210938 C 388.25 1015.109375 383.386719 1025.722656 382.34375 1033.023438 C 382.285156 1033.441406 382.574219 1033.824219 382.988281 1033.882812 C 383.402344 1033.941406 383.789062 1033.65625 383.847656 1033.238281 "/>
</g>
</g>
<g clip-path="url(#clip-36)">
<g clip-path="url(#clip-37)">
<path fill-rule="evenodd" fill="rgb(47.801208%, 61.521912%, 72.459412%)" fill-opacity="1" d="M 393.472656 1029.175781 C 393.359375 1028.164062 393.726562 1026.484375 394.292969 1024.53125 C 395.699219 1019.710938 398.410156 1013.347656 399.304688 1010.882812 C 404.886719 995.449219 410.828125 980.089844 417.863281 965.261719 C 418.046875 964.878906 417.882812 964.429688 417.503906 964.25 C 417.125 964.070312 416.671875 964.230469 416.492188 964.609375 C 409.4375 979.480469 403.472656 994.890625 397.875 1010.363281 C 396.976562 1012.847656 394.25 1019.253906 392.835938 1024.109375 C 392.195312 1026.304688 391.835938 1028.207031 391.964844 1029.347656 C 392.011719 1029.765625 392.390625 1030.0625 392.804688 1030.015625 C 393.222656 1029.96875 393.519531 1029.59375 393.472656 1029.175781 "/>
</g>
</g>
<path fill-rule="evenodd" fill="rgb(47.801208%, 61.521912%, 72.459412%)" fill-opacity="1" d="M 409.351562 1017.316406 C 394.585938 1025.078125 380.261719 1024.386719 366.277344 1017.316406 L 366.277344 1216.539062 C 379.984375 1227.621094 394.390625 1226.816406 409.351562 1216.539062 L 409.351562 1017.316406 "/>
<path fill-rule="evenodd" fill="rgb(100%, 73.242188%, 52.34375%)" fill-opacity="1" d="M 461.351562 986.890625 C 446.585938 995 444.984375 997.589844 431 990.210938 L 418.277344 1194.84375 C 425.34375 1200.808594 445.589844 1220.226562 452.425781 1217.335938 C 454.332031 1216.53125 458.949219 1201.710938 461.351562 1194.84375 L 461.351562 986.890625 "/>
<path fill-rule="evenodd" fill="rgb(100%, 86.71875%, 82.8125%)" fill-opacity="1" d="M 409.351562 1018.4375 L 425.019531 986.890625 L 461.078125 988.28125 L 452.425781 1018.4375 C 451.484375 1021.726562 449.695312 1024.839844 447.628906 1027.492188 C 444.464844 1031.558594 440.644531 1035.148438 435.925781 1037.332031 C 426.136719 1041.855469 417.800781 1039.84375 412.574219 1029.925781 C 411.226562 1027.367188 409.746094 1021.296875 409.351562 1018.4375 "/>
<g clip-path="url(#clip-38)">
<g clip-path="url(#clip-39)">
<path fill-rule="evenodd" fill="rgb(100%, 73.242188%, 52.34375%)" fill-opacity="1" d="M 412.703125 1025.644531 C 412.671875 1024.878906 413.109375 1023.585938 413.726562 1022.070312 C 415.292969 1018.242188 418.113281 1013.15625 419.027344 1011.234375 C 424.4375 999.878906 429.6875 988.441406 435.363281 977.21875 C 435.554688 976.839844 435.402344 976.390625 435.027344 976.199219 C 434.652344 976.011719 434.195312 976.160156 434.007812 976.53125 C 428.328125 987.769531 423.070312 999.210938 417.65625 1010.582031 C 416.734375 1012.515625 413.898438 1017.640625 412.324219 1021.496094 C 411.59375 1023.277344 411.148438 1024.8125 411.1875 1025.710938 C 411.207031 1026.128906 411.5625 1026.453125 411.980469 1026.4375 C 412.398438 1026.417969 412.722656 1026.0625 412.703125 1025.644531 "/>
</g>
</g>
<g clip-path="url(#clip-40)">
<g clip-path="url(#clip-41)">
<path fill-rule="evenodd" fill="rgb(100%, 73.242188%, 52.34375%)" fill-opacity="1" d="M 417.410156 1030.519531 C 417.589844 1026.242188 422.238281 1016.191406 423.8125 1012.03125 C 429.109375 998.050781 434.679688 984.191406 441.011719 970.640625 C 441.1875 970.261719 441.023438 969.808594 440.644531 969.628906 C 440.261719 969.449219 439.8125 969.621094 439.632812 970 C 433.289062 983.578125 427.703125 997.46875 422.394531 1011.492188 C 420.78125 1015.753906 416.078125 1026.074219 415.894531 1030.457031 C 415.878906 1030.878906 416.203125 1031.230469 416.621094 1031.246094 C 417.039062 1031.265625 417.394531 1030.941406 417.410156 1030.519531 "/>
</g>
</g>
<g clip-path="url(#clip-42)">
<g clip-path="url(#clip-43)">
<path fill-rule="evenodd" fill="rgb(100%, 73.242188%, 52.34375%)" fill-opacity="1" d="M 423.996094 1032.445312 C 424.65625 1025.59375 428.335938 1017.433594 430.535156 1010.941406 C 434.902344 998.058594 439.539062 985.261719 444.832031 972.71875 C 444.996094 972.339844 444.816406 971.890625 444.429688 971.730469 C 444.042969 971.558594 443.597656 971.75 443.433594 972.128906 C 438.125 984.699219 433.476562 997.539062 429.097656 1010.453125 C 426.863281 1017.046875 423.15625 1025.339844 422.488281 1032.300781 C 422.445312 1032.71875 422.753906 1033.089844 423.171875 1033.128906 C 423.585938 1033.167969 423.957031 1032.863281 423.996094 1032.445312 "/>
</g>
</g>
<g clip-path="url(#clip-44)">
<g clip-path="url(#clip-45)">
<path fill-rule="evenodd" fill="rgb(100%, 73.242188%, 52.34375%)" fill-opacity="1" d="M 431.945312 1033.410156 C 432.851562 1026.457031 437.476562 1016.230469 439.890625 1009.578125 C 445.398438 994.390625 451.0625 979.21875 457.476562 964.390625 C 457.640625 964.011719 457.464844 963.558594 457.078125 963.390625 C 456.695312 963.230469 456.246094 963.398438 456.082031 963.789062 C 449.65625 978.648438 443.980469 993.839844 438.460938 1009.058594 C 436.019531 1015.800781 431.359375 1026.171875 430.4375 1033.214844 C 430.386719 1033.632812 430.679688 1034.011719 431.09375 1034.066406 C 431.511719 1034.121094 431.890625 1033.828125 431.945312 1033.410156 "/>
</g>
</g>
<g clip-path="url(#clip-46)">
<g clip-path="url(#clip-47)">
<path fill-rule="evenodd" fill="rgb(100%, 73.242188%, 52.34375%)" fill-opacity="1" d="M 441.671875 1029.039062 C 442.386719 1024.554688 444.433594 1020.179688 445.933594 1015.921875 C 449.605469 1005.515625 453.445312 995.171875 457.359375 984.851562 C 457.507812 984.460938 457.308594 984.019531 456.917969 983.871094 C 456.527344 983.71875 456.085938 983.921875 455.9375 984.308594 C 452.019531 994.640625 448.175781 1004.996094 444.5 1015.417969 C 442.96875 1019.757812 440.902344 1024.226562 440.171875 1028.800781 C 440.105469 1029.214844 440.386719 1029.605469 440.800781 1029.671875 C 441.214844 1029.738281 441.605469 1029.453125 441.671875 1029.039062 "/>
</g>
</g>
<g clip-path="url(#clip-48)">
<g clip-path="url(#clip-49)">
<path fill-rule="evenodd" fill="rgb(100%, 73.242188%, 52.34375%)" fill-opacity="1" d="M 447.847656 1025.113281 C 448.191406 1020.902344 452.628906 1011.910156 454.164062 1007.6875 C 458.753906 995.070312 463.570312 982.539062 468.777344 970.160156 C 468.941406 969.769531 468.761719 969.328125 468.371094 969.171875 C 467.988281 969.011719 467.542969 969.191406 467.378906 969.570312 C 462.160156 981.96875 457.335938 994.519531 452.738281 1007.167969 C 451.167969 1011.484375 446.683594 1020.6875 446.335938 1024.988281 C 446.300781 1025.40625 446.613281 1025.773438 447.03125 1025.808594 C 447.449219 1025.839844 447.816406 1025.527344 447.847656 1025.113281 "/>
</g>
</g>
<g clip-path="url(#clip-50)">
<g clip-path="url(#clip-51)">
<path fill-rule="evenodd" fill="rgb(100%, 73.242188%, 52.34375%)" fill-opacity="1" d="M 426.921875 1034.363281 C 427.953125 1027.15625 432.777344 1016.695312 435.441406 1009.886719 C 440.824219 996.148438 446.230469 982.410156 452.578125 969.089844 C 452.761719 968.710938 452.601562 968.261719 452.222656 968.078125 C 451.84375 967.898438 451.390625 968.058594 451.210938 968.441406 C 444.84375 981.789062 439.425781 995.558594 434.027344 1009.335938 C 431.328125 1016.230469 426.464844 1026.847656 425.421875 1034.148438 C 425.359375 1034.5625 425.648438 1034.949219 426.0625 1035.007812 C 426.480469 1035.066406 426.863281 1034.777344 426.921875 1034.363281 "/>
</g>
</g>
<g clip-path="url(#clip-52)">
<g clip-path="url(#clip-53)">
<path fill-rule="evenodd" fill="rgb(100%, 73.242188%, 52.34375%)" fill-opacity="1" d="M 436.550781 1030.300781 C 436.433594 1029.285156 436.800781 1027.605469 437.367188 1025.65625 C 438.773438 1020.832031 441.488281 1014.46875 442.378906 1012.003906 C 447.960938 996.570312 453.90625 981.210938 460.941406 966.378906 C 461.121094 966 460.960938 965.550781 460.578125 965.371094 C 460.199219 965.191406 459.746094 965.351562 459.570312 965.730469 C 452.511719 980.609375 446.550781 996.011719 440.949219 1011.488281 C 440.054688 1013.96875 437.324219 1020.375 435.910156 1025.230469 C 435.269531 1027.429688 434.910156 1029.328125 435.039062 1030.472656 C 435.089844 1030.886719 435.464844 1031.1875 435.882812 1031.140625 C 436.296875 1031.09375 436.597656 1030.714844 436.550781 1030.300781 "/>
</g>
</g>
<path fill-rule="evenodd" fill="rgb(100%, 73.242188%, 52.34375%)" fill-opacity="1" d="M 452.425781 1018.4375 C 437.660156 1026.203125 423.339844 1025.511719 409.351562 1018.4375 L 409.351562 1217.660156 C 423.058594 1228.746094 437.464844 1227.941406 452.425781 1217.660156 L 452.425781 1018.4375 "/>
<path fill-rule="evenodd" fill="rgb(98.242188%, 46.99707%, 40.989685%)" fill-opacity="1" d="M 485.960938 990.261719 C 475.929688 1003.589844 475.546875 1006.519531 459.878906 1006.101562 L 576.339844 1202.878906 C 577.976562 1198.730469 575.015625 1188.898438 571.089844 1170.378906 L 485.960938 990.261719 "/>
<path fill-rule="evenodd" fill="rgb(100%, 86.71875%, 82.8125%)" fill-opacity="1" d="M 452.425781 1040.996094 L 453.113281 1005.78125 L 486.308594 991.628906 L 491.371094 1022.589844 C 491.925781 1025.96875 491.636719 1029.546875 490.902344 1032.828125 C 489.777344 1037.855469 487.863281 1042.734375 484.527344 1046.726562 C 477.609375 1054.996094 469.214844 1056.738281 460.25 1050.007812 C 457.933594 1048.269531 454.007812 1043.414062 452.425781 1040.996094 "/>
<g clip-path="url(#clip-54)">
<g clip-path="url(#clip-55)">
<path fill-rule="evenodd" fill="rgb(98.242188%, 46.99707%, 40.989685%)" fill-opacity="1" d="M 458.535156 1046.082031 C 458.179688 1045.402344 458.023438 1044.046875 457.9375 1042.414062 C 457.71875 1038.28125 458.09375 1032.476562 458.097656 1030.351562 C 458.136719 1017.773438 457.996094 1005.191406 458.332031 992.609375 C 458.34375 992.199219 458.011719 991.851562 457.59375 991.839844 C 457.175781 991.820312 456.824219 992.160156 456.8125 992.570312 C 456.480469 1005.160156 456.617188 1017.753906 456.578125 1030.347656 C 456.574219 1032.488281 456.199219 1038.335938 456.421875 1042.492188 C 456.523438 1044.414062 456.773438 1045.992188 457.195312 1046.789062 C 457.390625 1047.160156 457.851562 1047.300781 458.222656 1047.105469 C 458.589844 1046.910156 458.734375 1046.449219 458.535156 1046.082031 "/>
</g>
</g>
<g clip-path="url(#clip-56)">
<g clip-path="url(#clip-57)">
<path fill-rule="evenodd" fill="rgb(98.242188%, 46.99707%, 40.989685%)" fill-opacity="1" d="M 464.878906 1048.480469 C 463.210938 1044.535156 463.117188 1033.460938 462.765625 1029.023438 C 461.578125 1014.121094 460.695312 999.210938 460.625 984.261719 C 460.625 983.839844 460.28125 983.5 459.863281 983.5 C 459.445312 983.5 459.105469 983.839844 459.105469 984.261719 C 459.175781 999.261719 460.0625 1014.203125 461.253906 1029.144531 C 461.613281 1033.6875 461.769531 1045.027344 463.476562 1049.070312 C 463.640625 1049.457031 464.085938 1049.636719 464.472656 1049.472656 C 464.859375 1049.3125 465.039062 1048.863281 464.878906 1048.480469 "/>
</g>
</g>
<g clip-path="url(#clip-58)">
<g clip-path="url(#clip-59)">
<path fill-rule="evenodd" fill="rgb(98.242188%, 46.99707%, 40.989685%)" fill-opacity="1" d="M 471.65625 1047.402344 C 469.320312 1040.925781 469.160156 1031.976562 468.375 1025.171875 C 466.820312 1011.65625 465.539062 998.101562 464.972656 984.511719 C 464.953125 984.089844 464.601562 983.761719 464.183594 983.78125 C 463.761719 983.800781 463.4375 984.148438 463.453125 984.570312 C 464.027344 998.199219 465.308594 1011.792969 466.867188 1025.34375 C 467.664062 1032.257812 467.855469 1041.339844 470.226562 1047.917969 C 470.367188 1048.3125 470.804688 1048.515625 471.199219 1048.375 C 471.59375 1048.234375 471.796875 1047.796875 471.65625 1047.402344 "/>
</g>
</g>
<g clip-path="url(#clip-60)">
<g clip-path="url(#clip-61)">
<path fill-rule="evenodd" fill="rgb(98.242188%, 46.99707%, 40.989685%)" fill-opacity="1" d="M 479.253906 1044.882812 C 477.101562 1038.207031 476.914062 1026.984375 476.25 1019.9375 C 474.738281 1003.851562 473.382812 987.71875 472.839844 971.570312 C 472.828125 971.148438 472.476562 970.820312 472.058594 970.839844 C 471.636719 970.851562 471.308594 971.199219 471.324219 971.621094 C 471.867188 987.800781 473.222656 1003.960938 474.738281 1020.078125 C 475.410156 1027.21875 475.628906 1038.585938 477.808594 1045.347656 C 477.9375 1045.746094 478.363281 1045.964844 478.761719 1045.839844 C 479.160156 1045.710938 479.382812 1045.28125 479.253906 1044.882812 "/>
</g>
</g>
<g clip-path="url(#clip-62)">
<g clip-path="url(#clip-63)">
<path fill-rule="evenodd" fill="rgb(98.242188%, 46.99707%, 40.989685%)" fill-opacity="1" d="M 486.175781 1036.773438 C 484.910156 1032.414062 484.886719 1027.582031 484.425781 1023.09375 C 483.296875 1012.113281 482.347656 1001.121094 481.480469 990.121094 C 481.445312 989.699219 481.078125 989.390625 480.660156 989.421875 C 480.242188 989.460938 479.933594 989.820312 479.964844 990.238281 C 480.835938 1001.253906 481.785156 1012.257812 482.914062 1023.246094 C 483.386719 1027.824219 483.425781 1032.75 484.71875 1037.199219 C 484.835938 1037.601562 485.257812 1037.832031 485.660156 1037.714844 C 486.0625 1037.597656 486.292969 1037.175781 486.175781 1036.773438 "/>
</g>
</g>
<g clip-path="url(#clip-64)">
<g clip-path="url(#clip-65)">
<path fill-rule="evenodd" fill="rgb(98.242188%, 46.99707%, 40.989685%)" fill-opacity="1" d="M 490.085938 1030.582031 C 488.59375 1026.632812 488.765625 1016.605469 488.347656 1012.128906 C 487.105469 998.761719 486.109375 985.371094 485.527344 971.960938 C 485.507812 971.539062 485.152344 971.210938 484.734375 971.230469 C 484.316406 971.25 483.992188 971.601562 484.011719 972.019531 C 484.59375 985.460938 485.589844 998.871094 486.835938 1012.269531 C 487.261719 1016.84375 487.140625 1027.082031 488.664062 1031.117188 C 488.8125 1031.511719 489.25 1031.707031 489.640625 1031.558594 C 490.035156 1031.414062 490.230469 1030.972656 490.085938 1030.582031 "/>
</g>
</g>
<g clip-path="url(#clip-66)">
<g clip-path="url(#clip-67)">
<path fill-rule="evenodd" fill="rgb(98.242188%, 46.99707%, 40.989685%)" fill-opacity="1" d="M 475.117188 1047.886719 C 472.96875 1040.933594 472.859375 1029.410156 472.363281 1022.117188 C 471.359375 1007.398438 470.378906 992.671875 470.425781 977.910156 C 470.425781 977.488281 470.085938 977.148438 469.667969 977.148438 C 469.246094 977.148438 468.90625 977.488281 468.90625 977.910156 C 468.859375 992.699219 469.84375 1007.464844 470.847656 1022.222656 C 471.351562 1029.613281 471.492188 1041.289062 473.667969 1048.335938 C 473.789062 1048.734375 474.21875 1048.960938 474.617188 1048.835938 C 475.015625 1048.714844 475.242188 1048.289062 475.117188 1047.886719 "/>
</g>
</g>
<g clip-path="url(#clip-68)">
<g clip-path="url(#clip-69)">
<path fill-rule="evenodd" fill="rgb(98.242188%, 46.99707%, 40.989685%)" fill-opacity="1" d="M 482.085938 1040.101562 C 481.546875 1039.234375 481.160156 1037.558594 480.84375 1035.550781 C 480.050781 1030.589844 479.785156 1023.679688 479.539062 1021.066406 C 477.992188 1004.730469 476.804688 988.308594 476.824219 971.890625 C 476.824219 971.46875 476.484375 971.128906 476.066406 971.128906 C 475.648438 971.128906 475.308594 971.46875 475.308594 971.890625 C 475.285156 988.351562 476.472656 1004.828125 478.027344 1021.210938 C 478.273438 1023.839844 478.546875 1030.796875 479.34375 1035.789062 C 479.703125 1038.050781 480.1875 1039.925781 480.792969 1040.902344 C 481.015625 1041.257812 481.484375 1041.367188 481.839844 1041.144531 C 482.195312 1040.925781 482.304688 1040.457031 482.085938 1040.101562 "/>
</g>
</g>
<path fill-rule="evenodd" fill="rgb(98.242188%, 46.99707%, 40.989685%)" fill-opacity="1" d="M 491.371094 1022.589844 C 481.339844 1035.921875 468.09375 1041.414062 452.425781 1040.996094 L 537.554688 1221.117188 C 554.683594 1225.28125 567.363281 1218.398438 576.5 1202.710938 L 491.371094 1022.589844 "/>
<path fill-rule="evenodd" fill="rgb(47.801208%, 61.521912%, 72.459412%)" fill-opacity="1" d="M 536.300781 1017.523438 C 530.265625 1033.078125 530.695312 1036.007812 515.503906 1039.859375 L 681.058594 1197.585938 C 681.503906 1193.148438 675.984375 1184.488281 667.175781 1167.734375 L 536.300781 1017.523438 "/>
<path fill-rule="evenodd" fill="rgb(100%, 86.71875%, 82.8125%)" fill-opacity="1" d="M 517.816406 1075.46875 L 508.90625 1041.390625 L 537.007812 1018.75 L 550.292969 1047.171875 C 551.742188 1050.269531 552.4375 1053.792969 552.625 1057.152344 C 552.90625 1062.296875 552.390625 1067.511719 550.261719 1072.257812 C 545.855469 1082.097656 538.246094 1086.054688 527.792969 1082.011719 C 525.09375 1080.96875 519.992188 1077.363281 517.816406 1075.46875 "/>
<g clip-path="url(#clip-70)">
<g clip-path="url(#clip-71)">
<path fill-rule="evenodd" fill="rgb(47.801208%, 61.521912%, 72.459412%)" fill-opacity="1" d="M 525.078125 1078.699219 C 524.550781 1078.144531 524.03125 1076.882812 523.503906 1075.335938 C 522.167969 1071.417969 520.953125 1065.730469 520.378906 1063.679688 C 517 1051.566406 513.445312 1039.496094 510.351562 1027.300781 C 510.246094 1026.894531 509.832031 1026.648438 509.425781 1026.753906 C 509.019531 1026.855469 508.773438 1027.269531 508.878906 1027.675781 C 511.976562 1039.878906 515.53125 1051.960938 518.917969 1064.089844 C 519.492188 1066.152344 520.722656 1071.878906 522.066406 1075.824219 C 522.683594 1077.644531 523.355469 1079.09375 523.976562 1079.746094 C 524.265625 1080.050781 524.746094 1080.0625 525.050781 1079.773438 C 525.355469 1079.484375 525.367188 1079.003906 525.078125 1078.699219 "/>
</g>
</g>
<g clip-path="url(#clip-72)">
<g clip-path="url(#clip-73)">
<path fill-rule="evenodd" fill="rgb(47.801208%, 61.521912%, 72.459412%)" fill-opacity="1" d="M 531.828125 1079.285156 C 529.152344 1075.941406 526.054688 1065.308594 524.511719 1061.136719 C 519.320312 1047.117188 514.414062 1033.007812 510.285156 1018.632812 C 510.171875 1018.230469 509.75 1017.996094 509.347656 1018.113281 C 508.945312 1018.230469 508.710938 1018.652344 508.824219 1019.054688 C 512.96875 1033.464844 517.882812 1047.609375 523.089844 1061.664062 C 524.671875 1065.9375 527.902344 1076.808594 530.644531 1080.234375 C 530.90625 1080.5625 531.386719 1080.613281 531.710938 1080.351562 C 532.039062 1080.089844 532.09375 1079.613281 531.828125 1079.285156 "/>
</g>
</g>
<g clip-path="url(#clip-74)">
<g clip-path="url(#clip-75)">
<path fill-rule="evenodd" fill="rgb(47.801208%, 61.521912%, 72.459412%)" fill-opacity="1" d="M 538.0625 1076.40625 C 534.054688 1070.808594 531.46875 1062.238281 528.863281 1055.902344 C 523.695312 1043.320312 518.777344 1030.621094 514.535156 1017.691406 C 514.40625 1017.296875 513.976562 1017.078125 513.578125 1017.207031 C 513.179688 1017.339844 512.964844 1017.769531 513.09375 1018.164062 C 517.347656 1031.128906 522.277344 1043.863281 527.460938 1056.480469 C 530.101562 1062.914062 532.757812 1071.605469 536.824219 1077.289062 C 537.070312 1077.632812 537.542969 1077.710938 537.886719 1077.46875 C 538.226562 1077.222656 538.304688 1076.75 538.0625 1076.40625 "/>
</g>
</g>
<g clip-path="url(#clip-76)">
<g clip-path="url(#clip-77)">
<path fill-rule="evenodd" fill="rgb(47.801208%, 61.521912%, 72.459412%)" fill-opacity="1" d="M 544.6875 1071.917969 C 540.804688 1066.078125 537.570312 1055.328125 535.019531 1048.726562 C 529.191406 1033.65625 523.507812 1018.503906 518.59375 1003.105469 C 518.46875 1002.707031 518.039062 1002.484375 517.640625 1002.613281 C 517.242188 1002.738281 517.019531 1003.167969 517.148438 1003.566406 C 522.070312 1018.992188 527.765625 1034.175781 533.601562 1049.273438 C 536.1875 1055.964844 539.488281 1066.84375 543.421875 1072.757812 C 543.65625 1073.105469 544.128906 1073.199219 544.476562 1072.96875 C 544.824219 1072.738281 544.921875 1072.265625 544.6875 1071.917969 "/>
</g>
</g>
<g clip-path="url(#clip-78)">
<g clip-path="url(#clip-79)">
<path fill-rule="evenodd" fill="rgb(47.801208%, 61.521912%, 72.459412%)" fill-opacity="1" d="M 549.148438 1062.230469 C 546.742188 1058.378906 545.40625 1053.734375 543.746094 1049.539062 C 539.675781 1039.28125 535.773438 1028.960938 531.945312 1018.609375 C 531.800781 1018.21875 531.363281 1018.015625 530.972656 1018.160156 C 530.578125 1018.304688 530.378906 1018.742188 530.523438 1019.136719 C 534.355469 1029.496094 538.261719 1039.832031 542.332031 1050.101562 C 544.03125 1054.378906 545.40625 1059.109375 547.859375 1063.035156 C 548.082031 1063.390625 548.550781 1063.5 548.90625 1063.277344 C 549.261719 1063.054688 549.371094 1062.589844 549.148438 1062.230469 "/>
</g>
</g>
<g clip-path="url(#clip-80)">
<g clip-path="url(#clip-81)">
<path fill-rule="evenodd" fill="rgb(47.801208%, 61.521912%, 72.459412%)" fill-opacity="1" d="M 551.226562 1055.210938 C 548.71875 1051.8125 546.160156 1042.117188 544.539062 1037.925781 C 539.710938 1025.394531 535.113281 1012.785156 530.90625 1000.03125 C 530.777344 999.628906 530.347656 999.421875 529.949219 999.550781 C 529.550781 999.679688 529.335938 1000.109375 529.464844 1000.507812 C 533.679688 1013.285156 538.28125 1025.917969 543.125 1038.46875 C 544.777344 1042.757812 547.441406 1052.640625 550.003906 1056.113281 C 550.253906 1056.449219 550.726562 1056.523438 551.066406 1056.273438 C 551.402344 1056.023438 551.472656 1055.546875 551.226562 1055.210938 "/>
</g>
</g>
<g clip-path="url(#clip-82)">
<g clip-path="url(#clip-83)">
<path fill-rule="evenodd" fill="rgb(47.801208%, 61.521912%, 72.459412%)" fill-opacity="1" d="M 541.523438 1075.933594 C 537.570312 1069.824219 534.332031 1058.765625 531.871094 1051.882812 C 526.90625 1037.988281 521.957031 1024.082031 517.992188 1009.863281 C 517.878906 1009.460938 517.460938 1009.222656 517.054688 1009.335938 C 516.652344 1009.449219 516.414062 1009.867188 516.527344 1010.273438 C 520.503906 1024.523438 525.464844 1038.464844 530.441406 1052.394531 C 532.933594 1059.371094 536.242188 1070.566406 540.25 1076.757812 C 540.480469 1077.109375 540.949219 1077.210938 541.300781 1076.980469 C 541.652344 1076.753906 541.753906 1076.285156 541.523438 1075.933594 "/>
</g>
</g>
<g clip-path="url(#clip-84)">
<g clip-path="url(#clip-85)">
<path fill-rule="evenodd" fill="rgb(47.801208%, 61.521912%, 72.459412%)" fill-opacity="1" d="M 546.113281 1066.546875 C 545.359375 1065.855469 544.535156 1064.351562 543.683594 1062.503906 C 541.574219 1057.945312 539.4375 1051.363281 538.488281 1048.921875 C 532.5625 1033.621094 526.953125 1018.136719 522.515625 1002.328125 C 522.402344 1001.925781 521.980469 1001.691406 521.578125 1001.804688 C 521.175781 1001.917969 520.941406 1002.335938 521.054688 1002.738281 C 525.507812 1018.59375 531.128906 1034.125 537.074219 1049.46875 C 538.027344 1051.929688 540.179688 1058.550781 542.304688 1063.144531 C 543.265625 1065.222656 544.242188 1066.890625 545.089844 1067.664062 C 545.398438 1067.949219 545.878906 1067.925781 546.160156 1067.617188 C 546.445312 1067.308594 546.421875 1066.828125 546.113281 1066.546875 "/>
</g>
</g>
<path fill-rule="evenodd" fill="rgb(47.801208%, 61.521912%, 72.459412%)" fill-opacity="1" d="M 550.292969 1047.171875 C 544.261719 1062.726562 533.007812 1071.613281 517.816406 1075.46875 L 648.691406 1225.675781 C 666.304688 1225.027344 676.636719 1214.957031 681.167969 1197.378906 L 550.292969 1047.171875 "/>
<path fill-rule="evenodd" fill="rgb(47.801208%, 61.521912%, 72.459412%)" fill-opacity="1" d="M 859.78125 1210.9375 C 827.957031 1206.226562 779.515625 1201.035156 763.621094 1193.039062 C 704.53125 1163.300781 682.253906 1116.449219 729.304688 1098.730469 C 749 1091.316406 792.089844 1081.835938 814.980469 1079.621094 C 829.882812 1078.183594 864.003906 1083.167969 879.785156 1083.359375 C 892.679688 1083.515625 906.53125 1086.960938 919.46875 1087.148438 C 939.664062 1087.441406 962.097656 1096.660156 981.527344 1095.871094 C 995.65625 1095.296875 1065.75 1089.171875 1098.761719 1099.292969 C 1110.890625 1103.007812 1111.058594 1131.636719 1148.648438 1129.132812 C 1176.328125 1127.289062 1150.449219 1213.628906 1148.109375 1217.878906 C 1147.460938 1219.066406 1127.128906 1222.394531 1107.011719 1218.636719 C 1097.050781 1216.777344 1093.730469 1236.75 1073.378906 1236.644531 C 1041.378906 1236.472656 1004.859375 1225.902344 981.105469 1225.253906 C 930.488281 1223.871094 896.03125 1216.308594 859.78125 1210.9375 "/>
<path fill-rule="evenodd" fill="rgb(100%, 86.71875%, 82.8125%)" fill-opacity="1" d="M 1255.191406 740.621094 C 1252.160156 717.640625 1238.578125 720.171875 1240.640625 678.488281 C 1240.929688 672.660156 1242.699219 659.691406 1244.660156 659.890625 C 1260.800781 661.558594 1250.828125 687.03125 1261.929688 689.019531 C 1263.808594 689.359375 1265.949219 676.261719 1266.371094 671.070312 C 1267.359375 659.03125 1268.03125 647.03125 1270.539062 635.171875 C 1271.410156 631.078125 1272.28125 626.738281 1274.140625 622.949219 C 1274.730469 621.75 1275.949219 619.699219 1277.648438 620.390625 C 1281.089844 621.789062 1281.429688 628.53125 1281.769531 631.460938 C 1283.070312 642.589844 1282.339844 653.941406 1281.839844 665.101562 C 1281.660156 669.289062 1281.441406 673.488281 1281.421875 677.679688 C 1281.421875 677.910156 1281.28125 680.871094 1281.988281 680.640625 C 1282.890625 680.351562 1283.488281 678.320312 1283.789062 677.609375 C 1285.269531 674.261719 1286.519531 670.808594 1287.78125 667.378906 C 1292.441406 654.78125 1297.179688 642.238281 1303.011719 630.109375 C 1304.71875 626.539062 1306.441406 622.828125 1308.949219 619.71875 C 1309.820312 618.640625 1311.671875 616.398438 1313.351562 617.359375 C 1316.589844 619.21875 1314.96875 627.5 1314.699219 630.261719 C 1313.5 642.359375 1310.859375 654.25 1307.859375 666.019531 C 1306.878906 669.851562 1305.851562 673.691406 1305 677.550781 C 1304.941406 677.859375 1304.078125 681.058594 1305.058594 681.050781 C 1307.511719 681.019531 1311.03125 673.648438 1312.019531 672.070312 C 1318.691406 661.328125 1324.898438 650.359375 1332.671875 640.320312 C 1334.289062 638.230469 1341.449219 627.988281 1345.390625 631.070312 C 1348.589844 633.570312 1345.671875 641.191406 1344.808594 644.078125 C 1341.308594 655.710938 1335.691406 666.609375 1330.351562 677.5 C 1329.011719 680.21875 1327.710938 682.949219 1326.390625 685.671875 C 1326.121094 686.238281 1324.621094 688.550781 1325.058594 689.289062 C 1325.359375 689.789062 1327.21875 688.210938 1327.398438 688.078125 C 1330.308594 685.871094 1333.011719 683.398438 1335.78125 681.039062 C 1343.800781 674.210938 1358.558594 663.648438 1364.011719 668.410156 C 1365.738281 669.921875 1361.179688 675.589844 1356.609375 680.128906 C 1349.730469 686.96875 1340.480469 694.851562 1334.949219 702.941406 C 1328.960938 711.71875 1326.390625 724.449219 1320.191406 733.089844 C 1315.050781 740.261719 1309.101562 746.160156 1296.988281 746.179688 L 1255.191406 740.621094 "/>
<g clip-path="url(#clip-86)">
<g clip-path="url(#clip-87)">
<path fill-rule="evenodd" fill="rgb(100%, 73.242188%, 52.34375%)" fill-opacity="1" d="M 1262.078125 691.609375 C 1265.511719 692.828125 1269.03125 693.949219 1272.351562 695.421875 C 1274.488281 696.371094 1276.550781 697.460938 1278.441406 698.820312 C 1281.308594 700.898438 1283.621094 703.53125 1285.511719 706.449219 C 1288.410156 710.921875 1290.359375 716.050781 1291.871094 720.890625 C 1292.019531 721.390625 1292.578125 721.691406 1293.121094 721.558594 C 1293.660156 721.421875 1293.980469 720.898438 1293.839844 720.398438 C 1292.488281 715.320312 1290.679688 709.941406 1287.871094 705.179688 C 1285.929688 701.890625 1283.511719 698.921875 1280.449219 696.511719 C 1278.441406 694.929688 1276.230469 693.648438 1273.921875 692.511719 C 1270.578125 690.878906 1267.019531 689.589844 1263.558594 688.210938 C 1262.550781 687.828125 1261.398438 688.28125 1260.988281 689.21875 C 1260.578125 690.160156 1261.070312 691.230469 1262.078125 691.609375 "/>
</g>
</g>
<path fill-rule="evenodd" fill="rgb(47.801208%, 61.521912%, 72.459412%)" fill-opacity="1" d="M 1249.050781 937.539062 C 1182.320312 962.191406 1160.828125 1161.71875 1150.960938 1169.210938 C 1114.261719 1197.0625 1045.679688 1145.925781 1042.089844 1109.171875 C 1040.589844 1093.789062 1131.679688 936 1135.011719 920.371094 C 1137.179688 910.199219 1148.710938 889.828125 1152.371094 879.660156 C 1155.359375 871.359375 1161.171875 863.578125 1164.191406 855.261719 C 1168.921875 842.269531 1175.640625 830.628906 1179.328125 817.75 C 1182.011719 808.378906 1201.910156 776.410156 1217.261719 758.570312 C 1222.898438 752.011719 1231.308594 765.589844 1243.859375 739.558594 C 1252.179688 722.320312 1325.128906 750.960938 1319.390625 757.738281 C 1318.640625 758.621094 1318.5 766.050781 1311.050781 777.769531 C 1307.359375 783.578125 1321.488281 794.910156 1316.878906 808.070312 C 1309.640625 828.761719 1293.140625 848.730469 1287.351562 863.898438 C 1275.011719 896.238281 1275.460938 927.789062 1249.050781 937.539062 "/>
<path fill-rule="evenodd" fill="rgb(98.242188%, 46.99707%, 40.989685%)" fill-opacity="1" d="M 1536.910156 530.789062 C 1561.128906 504.449219 1555.101562 389.460938 1545.929688 375.421875 C 1530.640625 352.011719 1269.921875 352.738281 1246.390625 370.871094 C 1222.609375 389.191406 1228.308594 439.421875 1228.738281 493.011719 C 1228.96875 520.308594 1224.621094 539.609375 1261.871094 539.609375 C 1262.691406 550 1250.5 564.601562 1242.328125 571.820312 C 1238.53125 575.171875 1234.050781 577.621094 1229.648438 580.410156 C 1229.359375 580.589844 1227.941406 581.328125 1228.351562 581.769531 C 1230.320312 583.890625 1252.71875 581.730469 1255.660156 581.28125 C 1285.429688 576.660156 1305.039062 562.101562 1310 538.261719 C 1369.980469 538.261719 1528.039062 540.429688 1536.910156 530.789062 "/>
<path fill-rule="evenodd" fill="rgb(100%, 73.242188%, 52.34375%)" fill-opacity="1" d="M 832.226562 673.871094 C 845.097656 625.949219 803.941406 399.628906 974.660156 395.898438 C 1130.96875 392.480469 1109.988281 606.191406 1139.671875 688.230469 C 1148.578125 712.859375 1178.070312 745.378906 1181.578125 755.21875 C 1186.871094 770.078125 1251.078125 913.871094 1294.558594 1049.109375 C 1321.691406 1133.46875 1322.738281 1212.496094 1322.738281 1212.496094 C 1322.738281 1212.496094 1297.21875 1187.722656 1275.96875 1177.960938 C 1258.359375 1169.867188 1273.210938 1123.722656 1261.78125 1117.800781 C 1222.320312 1097.355469 1252.460938 1048.71875 1166.191406 1112.941406 C 1076.589844 1179.648438 899.285156 1181.171875 792.929688 1123.75 C 701.65625 1074.472656 703.910156 1126.347656 703.910156 1126.347656 C 703.910156 1126.347656 696.597656 956.910156 786.753906 761.921875 C 795.058594 743.960938 829.582031 683.710938 832.226562 673.871094 "/>
<path fill-rule="evenodd" fill="rgb(100%, 86.71875%, 82.8125%)" fill-opacity="1" d="M 888.882812 569.71875 C 886.960938 556.710938 947.589844 463.03125 975.949219 462.121094 C 1012.449219 460.949219 1071.679688 559.101562 1070.648438 569.78125 C 1065.179688 626.210938 1010.738281 673.789062 981.210938 673.871094 C 957.449219 673.941406 895.699219 632.351562 896.703125 597.539062 C 896.964844 588.441406 889.273438 572.359375 888.882812 569.71875 "/>
<g clip-path="url(#clip-88)">
<g clip-path="url(#clip-89)">
<path fill-rule="evenodd" fill="rgb(47.801208%, 61.521912%, 72.459412%)" fill-opacity="1" d="M 910.335938 505.328125 C 930.972656 485.820312 961.378906 483.96875 988.15625 485.390625 C 991.953125 485.589844 995.746094 485.878906 999.527344 486.230469 C 1010.019531 487.210938 1020.488281 489.039062 1031.070312 488.761719 C 1035.71875 488.640625 1042.980469 488.621094 1046.578125 484.800781 C 1047.480469 483.851562 1048.351562 482.839844 1049.019531 481.71875 C 1053.851562 473.589844 1046.589844 464.351562 1040.679688 459.230469 C 1038.398438 457.269531 1036.089844 455.339844 1033.671875 453.570312 C 1031.300781 451.839844 1028.828125 450.261719 1026.328125 448.75 C 1022.910156 446.671875 1018.308594 444.230469 1014.460938 442.75 C 1011.109375 441.460938 1007.019531 440.351562 1003.488281 439.671875 C 977.929688 434.769531 953.25 446.488281 934.421875 463.339844 L 910.335938 505.328125 "/>
</g>
</g>
<path fill-rule="evenodd" fill="rgb(28.393555%, 22.410583%, 17.700195%)" fill-opacity="1" d="M 1403.609375 924.199219 L 1054.03125 919.640625 L 991.113281 1209.910156 L 843.378906 1209.910156 L 828.839844 1239.082031 L 1314.039062 1238.289062 L 1403.609375 924.199219 "/>
</svg>
