<?xml version="1.0" encoding="UTF-8"?>
<svg xmlns="http://www.w3.org/2000/svg" xmlns:xlink="http://www.w3.org/1999/xlink" width="2000" height="2000" viewBox="0 0 2000 2000">
<defs>
<clipPath id="clip-0">
<path clip-rule="nonzero" d="M 1344 1151 L 1585 1151 L 1585 1203 L 1344 1203 Z M 1344 1151 "/>
</clipPath>
<clipPath id="clip-1">
<path clip-rule="evenodd" d="M 1584.441406 1116.847656 L 1344.03125 1119.53125 C 1344.03125 1119.53125 1362.988281 1268.214844 1388.71875 1299.128906 C 1414.441406 1330.046875 1517.339844 1330.046875 1543.070312 1299.128906 C 1568.789062 1268.214844 1584.441406 1116.847656 1584.441406 1116.847656 Z M 1584.441406 1116.847656 "/>
</clipPath>
<clipPath id="clip-2">
<path clip-rule="nonzero" d="M 1344 1193 L 1585 1193 L 1585 1246 L 1344 1246 Z M 1344 1193 "/>
</clipPath>
<clipPath id="clip-3">
<path clip-rule="evenodd" d="M 1584.441406 1116.847656 L 1344.03125 1119.53125 C 1344.03125 1119.53125 1362.988281 1268.214844 1388.71875 1299.128906 C 1414.441406 1330.046875 1517.339844 1330.046875 1543.070312 1299.128906 C 1568.789062 1268.214844 1584.441406 1116.847656 1584.441406 1116.847656 Z M 1584.441406 1116.847656 "/>
</clipPath>
<clipPath id="clip-4">
<path clip-rule="nonzero" d="M 949 944 L 1001 944 L 1001 960 L 949 960 Z M 949 944 "/>
</clipPath>
<clipPath id="clip-5">
<path clip-rule="evenodd" d="M 862.917969 944.679688 C 861.890625 953.878906 857.578125 963.300781 856.910156 972.601562 C 856.710938 975.371094 855.980469 980.46875 858.472656 982.480469 C 860.445312 984.070312 864.921875 983.089844 867.636719 982.660156 C 874.367188 981.601562 880.78125 980.578125 887.433594 980.761719 C 897.421875 981.039062 905.484375 985.421875 915.546875 985.328125 C 922.621094 985.269531 929.621094 983.011719 936.628906 981.410156 C 943.8125 979.769531 951.128906 978.761719 958.359375 977.761719 C 964.875 976.859375 981.953125 975.710938 987.242188 971.460938 C 989.761719 969.429688 986.027344 967.761719 987.8125 965.78125 C 990.222656 963.109375 996.246094 964.839844 998.296875 962.488281 C 999.96875 960.578125 996.894531 959.441406 997.015625 957.808594 C 997.070312 957.019531 1000.449219 956.589844 1000.199219 954.921875 C 999.382812 949.460938 983.503906 942.648438 978.039062 939.988281 C 973.019531 937.539062 967.433594 936.03125 961.285156 935.339844 C 959.730469 935.171875 950.75 934.78125 951.660156 933.621094 C 954.023438 930.578125 962.089844 928.929688 965.835938 927.609375 C 967.363281 927.078125 970.492188 926.589844 970.828125 925 C 971.136719 923.550781 968.066406 922.621094 966.824219 922.171875 C 962.039062 920.441406 956.25 921.019531 950.820312 922.730469 C 939.9375 926.160156 931.679688 933.308594 921.195312 937.460938 C 904.878906 943.910156 879.65625 944.289062 862.917969 944.679688 Z M 862.917969 944.679688 "/>
</clipPath>
<clipPath id="clip-6">
<path clip-rule="nonzero" d="M 943 954 L 994 954 L 994 968 L 943 968 Z M 943 954 "/>
</clipPath>
<clipPath id="clip-7">
<path clip-rule="evenodd" d="M 862.917969 944.679688 C 861.890625 953.878906 857.578125 963.300781 856.910156 972.601562 C 856.710938 975.371094 855.980469 980.46875 858.472656 982.480469 C 860.445312 984.070312 864.921875 983.089844 867.636719 982.660156 C 874.367188 981.601562 880.78125 980.578125 887.433594 980.761719 C 897.421875 981.039062 905.484375 985.421875 915.546875 985.328125 C 922.621094 985.269531 929.621094 983.011719 936.628906 981.410156 C 943.8125 979.769531 951.128906 978.761719 958.359375 977.761719 C 964.875 976.859375 981.953125 975.710938 987.242188 971.460938 C 989.761719 969.429688 986.027344 967.761719 987.8125 965.78125 C 990.222656 963.109375 996.246094 964.839844 998.296875 962.488281 C 999.96875 960.578125 996.894531 959.441406 997.015625 957.808594 C 997.070312 957.019531 1000.449219 956.589844 1000.199219 954.921875 C 999.382812 949.460938 983.503906 942.648438 978.039062 939.988281 C 973.019531 937.539062 967.433594 936.03125 961.285156 935.339844 C 959.730469 935.171875 950.75 934.78125 951.660156 933.621094 C 954.023438 930.578125 962.089844 928.929688 965.835938 927.609375 C 967.363281 927.078125 970.492188 926.589844 970.828125 925 C 971.136719 923.550781 968.066406 922.621094 966.824219 922.171875 C 962.039062 920.441406 956.25 921.019531 950.820312 922.730469 C 939.9375 926.160156 931.679688 933.308594 921.195312 937.460938 C 904.878906 943.910156 879.65625 944.289062 862.917969 944.679688 Z M 862.917969 944.679688 "/>
</clipPath>
<clipPath id="clip-8">
<path clip-rule="nonzero" d="M 943 965 L 993 965 L 993 971 L 943 971 Z M 943 965 "/>
</clipPath>
<clipPath id="clip-9">
<path clip-rule="evenodd" d="M 862.917969 944.679688 C 861.890625 953.878906 857.578125 963.300781 856.910156 972.601562 C 856.710938 975.371094 855.980469 980.46875 858.472656 982.480469 C 860.445312 984.070312 864.921875 983.089844 867.636719 982.660156 C 874.367188 981.601562 880.78125 980.578125 887.433594 980.761719 C 897.421875 981.039062 905.484375 985.421875 915.546875 985.328125 C 922.621094 985.269531 929.621094 983.011719 936.628906 981.410156 C 943.8125 979.769531 951.128906 978.761719 958.359375 977.761719 C 964.875 976.859375 981.953125 975.710938 987.242188 971.460938 C 989.761719 969.429688 986.027344 967.761719 987.8125 965.78125 C 990.222656 963.109375 996.246094 964.839844 998.296875 962.488281 C 999.96875 960.578125 996.894531 959.441406 997.015625 957.808594 C 997.070312 957.019531 1000.449219 956.589844 1000.199219 954.921875 C 999.382812 949.460938 983.503906 942.648438 978.039062 939.988281 C 973.019531 937.539062 967.433594 936.03125 961.285156 935.339844 C 959.730469 935.171875 950.75 934.78125 951.660156 933.621094 C 954.023438 930.578125 962.089844 928.929688 965.835938 927.609375 C 967.363281 927.078125 970.492188 926.589844 970.828125 925 C 971.136719 923.550781 968.066406 922.621094 966.824219 922.171875 C 962.039062 920.441406 956.25 921.019531 950.820312 922.730469 C 939.9375 926.160156 931.679688 933.308594 921.195312 937.460938 C 904.878906 943.910156 879.65625 944.289062 862.917969 944.679688 Z M 862.917969 944.679688 "/>
</clipPath>
<clipPath id="clip-10">
<path clip-rule="nonzero" d="M 657 385 L 790 385 L 790 423 L 657 423 Z M 657 385 "/>
</clipPath>
<clipPath id="clip-11">
<path clip-rule="evenodd" d="M 645.742188 465.121094 C 658.0625 438.011719 703.851562 389.28125 727.746094 386.109375 C 751.640625 382.949219 784.890625 442.171875 789.113281 446.128906 C 790.125 447.078125 786.035156 460.03125 785.523438 466.960938 C 784.867188 475.851562 788.398438 484.078125 788.820312 492.851562 C 789.269531 502.128906 785 511.359375 779.5625 518.761719 C 770.058594 531.699219 757.640625 542.5 743.730469 550.699219 C 736.585938 554.910156 728.710938 559.101562 720.199219 559.351562 C 709.140625 559.671875 696.433594 552.171875 687.914062 546.078125 C 664.089844 529.078125 650.546875 499.089844 645.742188 465.121094 Z M 645.742188 465.121094 "/>
</clipPath>
</defs>
<path fill-rule="evenodd" fill="rgb(98.242188%, 46.99707%, 40.989685%)" fill-opacity="1" d="M 802.628906 635.679688 C 802.628906 635.679688 842.054688 314.148438 581.523438 400.089844 C 444.609375 445.25 386.96875 591.511719 360.027344 731.398438 C 322.28125 927.371094 229.097656 1186.308594 397.6875 1353.960938 C 508.199219 1463.855469 746.480469 1431.378906 884.625 1431.378906 C 1001.261719 1431.378906 1141.921875 1428.046875 1244.148438 1352.527344 C 1275.71875 1329.207031 1302.808594 1300.136719 1322.359375 1263.636719 C 1343.820312 1223.570312 1351.378906 1191.371094 1351.378906 1144.640625 C 1351.378906 993.03125 1168.058594 929.75 1063.761719 895.179688 C 1000.339844 874.160156 915.75 864.640625 861.917969 817.761719 C 818.117188 779.621094 819.34375 689.960938 802.628906 635.679688 "/>
<path fill-rule="evenodd" fill="rgb(98.242188%, 46.99707%, 40.989685%)" fill-opacity="1" d="M 1576.449219 945.421875 C 1601.011719 938.488281 1627.140625 946.140625 1651.210938 959.050781 C 1659.351562 963.410156 1667.570312 967.898438 1675.378906 973.039062 C 1677.890625 974.679688 1682.871094 976.988281 1683.808594 980.621094 C 1684.738281 984.199219 1679.058594 987.769531 1677.230469 989.390625 C 1668.230469 997.371094 1658.960938 1004.917969 1649.789062 1012.605469 C 1642.988281 1018.300781 1635.679688 1023.582031 1627.988281 1028.351562 L 1627.738281 1027.984375 C 1624.078125 1022.6875 1620.449219 1017.355469 1616.609375 1012.238281 C 1614.960938 1010.027344 1613.289062 1007.898438 1611.25 1006.164062 C 1610.671875 1005.671875 1609.460938 1004.394531 1608.648438 1004.910156 C 1607.769531 1005.476562 1608.109375 1007.625 1608.179688 1008.503906 C 1608.410156 1011.394531 1608.828125 1014.265625 1609.171875 1017.140625 C 1609.609375 1020.789062 1610.148438 1024.414062 1610.679688 1028.042969 C 1611.140625 1031.109375 1611.558594 1034.183594 1612.039062 1037.246094 C 1599.320312 1043.578125 1585.890625 1048.519531 1572.289062 1051.707031 C 1570.871094 1049.097656 1569.199219 1046.695312 1567.558594 1044.796875 C 1564.191406 1040.898438 1559.890625 1041.132812 1559.101562 1047.164062 C 1558.851562 1049.023438 1558.820312 1050.925781 1558.738281 1052.800781 C 1558.710938 1053.296875 1558.691406 1053.796875 1558.660156 1054.296875 C 1542.761719 1056.605469 1526.851562 1056.382812 1511.78125 1053.054688 C 1508.230469 1054.449219 1511.660156 1026.390625 1512 1024.867188 C 1515.738281 1007.804688 1523.339844 992.039062 1532.800781 978.46875 C 1537.410156 971.859375 1542.648438 965.929688 1548.5 960.859375 C 1551.871094 957.929688 1555.300781 955.398438 1558.789062 953.238281 C 1562.371094 958.929688 1566.148438 964.449219 1569.980469 969.910156 C 1570.609375 970.820312 1573.519531 976.039062 1574.820312 975.449219 C 1575.710938 975.050781 1575.648438 972.480469 1575.691406 971.648438 C 1575.878906 968.191406 1575.941406 964.710938 1576.050781 961.238281 C 1576.21875 955.96875 1576.339844 950.691406 1576.449219 945.421875 "/>
<path fill-rule="evenodd" fill="rgb(98.242188%, 46.99707%, 40.989685%)" fill-opacity="1" d="M 1498.480469 1098.015625 C 1499.390625 1080.007812 1511.578125 1057.5 1526.671875 1037.597656 C 1542.621094 1016.566406 1561.921875 998.441406 1575.710938 991.75 C 1581.5 988.941406 1594.199219 986.949219 1608.070312 985.628906 C 1627.808594 983.738281 1649.878906 983.320312 1658.609375 984.410156 C 1659.828125 984.578125 1660.960938 983.660156 1661.121094 982.371094 C 1661.28125 981.078125 1660.421875 979.898438 1659.191406 979.730469 C 1650.320312 978.378906 1627.789062 978.171875 1607.621094 979.550781 C 1592.800781 980.558594 1579.25 982.511719 1573 985.351562 C 1558.339844 991.988281 1537.480469 1010.351562 1520.191406 1032.003906 C 1503.210938 1053.25 1489.859375 1077.714844 1488.390625 1097.3125 C 1488.210938 1100.242188 1490.320312 1102.78125 1493.101562 1102.976562 C 1495.878906 1103.171875 1498.289062 1100.949219 1498.480469 1098.015625 "/>
<path fill-rule="evenodd" fill="rgb(98.242188%, 46.99707%, 40.989685%)" fill-opacity="1" d="M 1578.308594 988 C 1579.441406 986.261719 1580.738281 984.648438 1582.140625 983.128906 C 1584.371094 980.71875 1586.800781 978.53125 1589.121094 976.398438 C 1593.828125 972.070312 1598.648438 968.050781 1603.929688 965.171875 C 1607.480469 963.230469 1611.230469 961.789062 1615.289062 961.121094 C 1615.910156 961.039062 1616.339844 960.449219 1616.269531 959.800781 C 1616.191406 959.160156 1615.628906 958.699219 1615.019531 958.78125 C 1610.640625 959.21875 1606.550781 960.5 1602.640625 962.339844 C 1596.960938 965 1591.691406 968.859375 1586.519531 973.070312 C 1583.988281 975.128906 1581.339844 977.238281 1578.890625 979.601562 C 1577.199219 981.21875 1575.621094 982.96875 1574.21875 984.871094 C 1573.398438 986.058594 1573.648438 987.730469 1574.78125 988.589844 C 1575.910156 989.460938 1577.488281 989.191406 1578.308594 988 "/>
<path fill-rule="evenodd" fill="rgb(98.242188%, 46.99707%, 40.989685%)" fill-opacity="1" d="M 1547.628906 1013.628906 C 1555.488281 1012.414062 1563.449219 1013.148438 1570.980469 1015.683594 C 1578.449219 1018.195312 1585.488281 1022.429688 1591.609375 1028.238281 C 1592.058594 1028.6875 1592.769531 1028.671875 1593.199219 1028.199219 C 1593.628906 1027.726562 1593.609375 1026.980469 1593.160156 1026.53125 C 1587.058594 1020.042969 1579.890625 1015.171875 1572.191406 1012.058594 C 1564.191406 1008.824219 1555.621094 1007.539062 1547.039062 1008.339844 C 1545.648438 1008.511719 1544.660156 1009.835938 1544.820312 1011.296875 C 1544.980469 1012.753906 1546.238281 1013.800781 1547.628906 1013.628906 "/>
<path fill-rule="evenodd" fill="rgb(98.242188%, 46.99707%, 40.989685%)" fill-opacity="1" d="M 1529.78125 1026.386719 C 1530.050781 1024.855469 1530.46875 1023.320312 1530.96875 1021.792969 C 1532.21875 1017.984375 1533.929688 1014.21875 1535.109375 1010.59375 C 1537.570312 1003.070312 1540.070312 995.511719 1542.238281 987.820312 C 1543.679688 982.699219 1544.980469 977.53125 1546.019531 972.28125 C 1546.160156 971.648438 1545.78125 971.011719 1545.179688 970.859375 C 1544.578125 970.71875 1543.980469 971.109375 1543.828125 971.738281 C 1542.558594 976.851562 1541.03125 981.871094 1539.359375 986.839844 C 1536.828125 994.351562 1533.980469 1001.714844 1531.171875 1009.046875 C 1529.808594 1012.605469 1527.921875 1016.277344 1526.480469 1020.015625 C 1525.808594 1021.761719 1525.238281 1023.519531 1524.839844 1025.28125 C 1524.550781 1026.71875 1525.421875 1028.132812 1526.789062 1028.4375 C 1528.148438 1028.742188 1529.488281 1027.820312 1529.78125 1026.386719 "/>
<path fill-rule="evenodd" fill="rgb(98.242188%, 46.99707%, 40.989685%)" fill-opacity="1" d="M 1599.21875 987.460938 C 1608.019531 989.859375 1617.46875 992.339844 1625.921875 996.921875 C 1631.339844 999.851562 1636.351562 1003.632812 1640.46875 1008.824219 C 1640.859375 1009.335938 1641.558594 1009.425781 1642.050781 1009.023438 C 1642.53125 1008.617188 1642.621094 1007.878906 1642.230469 1007.363281 C 1638.179688 1001.601562 1633.109375 997.269531 1627.539062 993.808594 C 1619.121094 988.570312 1609.539062 985.390625 1600.628906 982.351562 C 1599.289062 981.941406 1597.890625 982.75 1597.5 984.160156 C 1597.109375 985.570312 1597.878906 987.050781 1599.21875 987.460938 "/>
<path fill-rule="evenodd" fill="rgb(98.242188%, 46.99707%, 40.989685%)" fill-opacity="1" d="M 1349.621094 958.78125 C 1324.441406 956.410156 1299.628906 968.730469 1277.558594 985.871094 C 1270.101562 991.660156 1262.578125 997.589844 1255.53125 1004.09375 C 1253.28125 1006.175781 1248.660156 1009.359375 1248.210938 1013.121094 C 1247.769531 1016.824219 1253.851562 1019.316406 1255.878906 1020.585938 C 1265.820312 1026.824219 1275.96875 1032.59375 1286.050781 1038.519531 C 1293.519531 1042.902344 1301.441406 1046.789062 1309.660156 1050.097656 L 1309.871094 1049.6875 C 1312.78125 1043.789062 1315.660156 1037.863281 1318.769531 1032.105469 C 1320.121094 1029.621094 1321.480469 1027.210938 1323.269531 1025.128906 C 1323.769531 1024.539062 1324.808594 1023.050781 1325.671875 1023.414062 C 1326.621094 1023.8125 1326.570312 1025.996094 1326.609375 1026.878906 C 1326.769531 1029.777344 1326.738281 1032.6875 1326.769531 1035.59375 C 1326.820312 1039.277344 1326.769531 1042.953125 1326.71875 1046.640625 C 1326.679688 1049.746094 1326.671875 1052.863281 1326.601562 1055.976562 C 1340 1059.914062 1353.921875 1062.347656 1367.78125 1063.015625 C 1368.839844 1060.179688 1370.160156 1057.503906 1371.539062 1055.328125 C 1374.351562 1050.859375 1378.628906 1050.308594 1380.210938 1056.121094 C 1380.699219 1057.914062 1380.980469 1059.789062 1381.308594 1061.625 C 1381.398438 1062.109375 1381.488281 1062.601562 1381.578125 1063.089844 C 1397.601562 1062.472656 1413.28125 1059.351562 1427.738281 1053.316406 C 1431.421875 1054.050781 1424.320312 1026.953125 1423.789062 1025.511719 C 1417.839844 1009.335938 1408.238281 995.148438 1397.109375 983.460938 C 1391.679688 977.769531 1385.71875 972.878906 1379.269531 968.929688 C 1375.550781 966.648438 1371.828125 964.78125 1368.089844 963.28125 C 1365.308594 969.558594 1362.300781 975.691406 1359.25 981.789062 C 1358.738281 982.808594 1356.558594 988.488281 1355.191406 988.148438 C 1354.261719 987.910156 1353.988281 985.359375 1353.828125 984.550781 C 1353.191406 981.160156 1352.671875 977.738281 1352.101562 974.328125 C 1351.238281 969.148438 1350.421875 963.96875 1349.621094 958.78125 "/>
<path fill-rule="evenodd" fill="rgb(98.242188%, 46.99707%, 40.989685%)" fill-opacity="1" d="M 1456.699219 1092.949219 C 1452.648438 1073.828125 1436.230469 1052.070312 1416.640625 1034.144531 C 1396.671875 1015.863281 1373.601562 1001.496094 1358.210938 997.589844 C 1351.648438 995.929688 1337.941406 996.480469 1323.128906 998.191406 C 1303.058594 1000.511719 1280.910156 1004.8125 1272.339844 1007.757812 C 1271.160156 1008.144531 1270.511719 1009.46875 1270.871094 1010.710938 C 1271.238281 1011.953125 1272.5 1012.648438 1273.679688 1012.261719 C 1282.140625 1009.601562 1303.960938 1006.007812 1323.691406 1004.265625 C 1337.601562 1003.039062 1350.449219 1002.679688 1356.558594 1004.40625 C 1371.070312 1008.503906 1392.53125 1022.882812 1411.058594 1040.742188 C 1428.558594 1057.605469 1443.53125 1077.5625 1446.808594 1095.132812 C 1447.378906 1098.007812 1450.058594 1099.855469 1452.789062 1099.25 C 1455.519531 1098.648438 1457.269531 1095.824219 1456.699219 1092.949219 "/>
<path fill-rule="evenodd" fill="rgb(98.242188%, 46.99707%, 40.989685%)" fill-opacity="1" d="M 1357.011719 997.390625 C 1355.378906 995.75 1353.578125 994.308594 1351.691406 993.011719 C 1348.960938 991.128906 1346.058594 989.519531 1343.289062 987.941406 C 1337.609375 984.710938 1331.871094 981.839844 1325.890625 980.25 C 1321.800781 979.160156 1317.609375 978.640625 1313.25 979.011719 C 1312.628906 979.039062 1312.148438 979.589844 1312.179688 980.238281 C 1312.210938 980.890625 1312.738281 981.390625 1313.351562 981.359375 C 1317.441406 981.28125 1321.320312 982.011719 1325.070312 983.269531 C 1330.691406 985.160156 1335.988281 988.25 1341.230469 991.679688 C 1343.800781 993.359375 1346.5 995.070312 1349.011719 997.039062 C 1350.589844 998.28125 1352.089844 999.628906 1353.429688 1001.140625 C 1354.410156 1002.179688 1356.011719 1002.1875 1357 1001.152344 C 1357.988281 1000.113281 1358 998.429688 1357.011719 997.390625 "/>
<path fill-rule="evenodd" fill="rgb(98.242188%, 46.99707%, 40.989685%)" fill-opacity="1" d="M 1386.910156 1015.578125 C 1378.300781 1016.351562 1369.96875 1019.203125 1362.480469 1023.890625 C 1355.339844 1028.359375 1348.949219 1034.453125 1343.820312 1041.933594 C 1343.441406 1042.449219 1343.539062 1043.191406 1344.03125 1043.589844 C 1344.519531 1043.984375 1345.21875 1043.886719 1345.601562 1043.371094 C 1350.859375 1036.546875 1357.238281 1031.09375 1364.261719 1027.25 C 1371.398438 1023.332031 1379.210938 1021.132812 1387.191406 1020.894531 C 1388.589844 1020.8125 1389.648438 1019.554688 1389.570312 1018.085938 C 1389.488281 1016.621094 1388.300781 1015.496094 1386.910156 1015.578125 "/>
<path fill-rule="evenodd" fill="rgb(98.242188%, 46.99707%, 40.989685%)" fill-opacity="1" d="M 1411.160156 1028.339844 C 1410.539062 1026.667969 1409.738281 1025.03125 1408.851562 1023.429688 C 1406.929688 1019.992188 1404.570312 1016.703125 1402.761719 1013.433594 C 1399.011719 1006.691406 1395.21875 999.921875 1391.730469 992.960938 C 1389.421875 988.359375 1387.25 983.679688 1385.320312 978.871094 C 1385.089844 978.261719 1384.441406 977.960938 1383.871094 978.199219 C 1383.289062 978.441406 1383.011719 979.121094 1383.230469 979.730469 C 1384.949219 984.71875 1386.910156 989.578125 1389.011719 994.371094 C 1392.171875 1001.570312 1395.648438 1008.582031 1399.070312 1015.566406 C 1400.71875 1018.933594 1402.910156 1022.34375 1404.648438 1025.875 C 1405.339844 1027.285156 1405.949219 1028.71875 1406.421875 1030.171875 C 1406.898438 1031.550781 1408.351562 1032.261719 1409.660156 1031.757812 C 1410.96875 1031.25 1411.640625 1029.71875 1411.160156 1028.339844 "/>
<path fill-rule="evenodd" fill="rgb(98.242188%, 46.99707%, 40.989685%)" fill-opacity="1" d="M 1330.539062 999.671875 C 1322.140625 1004.296875 1313.101562 1009.1875 1305.46875 1015.917969 C 1300.460938 1020.339844 1296.039062 1025.523438 1292.808594 1031.941406 C 1292.511719 1032.507812 1292.691406 1033.226562 1293.230469 1033.550781 C 1293.769531 1033.871094 1294.449219 1033.671875 1294.761719 1033.105469 C 1298.148438 1027.230469 1302.589844 1022.589844 1307.558594 1018.699219 C 1315.320312 1012.628906 1324.359375 1008.441406 1332.75 1004.453125 C 1334.011719 1003.808594 1334.53125 1002.214844 1333.921875 1000.894531 C 1333.308594 999.570312 1331.789062 999.019531 1330.539062 999.671875 "/>
<path fill-rule="evenodd" fill="rgb(98.242188%, 46.99707%, 40.989685%)" fill-opacity="1" d="M 1486.941406 851.96875 C 1508.179688 820.660156 1541.140625 799.589844 1575.53125 784.980469 C 1587.171875 780.039062 1598.96875 775.121094 1610.789062 771.140625 C 1614.578125 769.871094 1621.441406 766.550781 1624.949219 768.53125 C 1628.390625 770.480469 1624.839844 779.320312 1624.019531 782.558594 C 1619.988281 798.46875 1615.371094 814.308594 1610.960938 830.160156 C 1607.679688 841.910156 1603.578125 853.859375 1598.71875 865.78125 L 1598.199219 865.738281 C 1590.671875 865.238281 1583.148438 864.691406 1575.558594 864.519531 C 1572.28125 864.449219 1569.039062 864.449219 1565.691406 865.160156 C 1564.738281 865.371094 1562.558594 865.589844 1562.058594 866.859375 C 1561.519531 868.238281 1563.359375 869.640625 1564.039062 870.289062 C 1566.28125 872.398438 1568.699219 874.308594 1571.050781 876.289062 C 1574.03125 878.808594 1577.101562 881.210938 1580.171875 883.609375 C 1582.761719 885.628906 1585.328125 887.699219 1587.949219 889.699219 C 1578.839844 908.160156 1568.019531 926.210938 1555.808594 943.019531 C 1552.5 942.371094 1549.078125 942.160156 1546.039062 942.320312 C 1539.78125 942.660156 1535.390625 947.339844 1538.699219 953.089844 C 1539.71875 954.871094 1541 956.449219 1542.199219 958.070312 C 1542.519531 958.5 1542.839844 958.929688 1543.160156 959.371094 C 1527.898438 977.859375 1510.890625 994.300781 1492.628906 1007.335938 C 1489.839844 1012.175781 1474.121094 985.699219 1473.429688 984.109375 C 1465.621094 966.28125 1462.808594 945.480469 1463.46875 924.519531 C 1463.800781 914.320312 1465.269531 904.011719 1467.960938 893.761719 C 1469.511719 887.851562 1471.410156 882.191406 1473.621094 876.78125 C 1481.328125 877.699219 1489.140625 878.238281 1496.960938 878.710938 C 1498.269531 878.78125 1504.941406 880 1505.921875 878.171875 C 1506.578125 876.910156 1504.738281 874.878906 1504.21875 874.160156 C 1502.019531 871.140625 1499.699219 868.230469 1497.421875 865.28125 C 1493.960938 860.808594 1490.460938 856.378906 1486.941406 851.96875 "/>
<path fill-rule="evenodd" fill="rgb(98.242188%, 46.99707%, 40.989685%)" fill-opacity="1" d="M 1501.53125 972.488281 C 1500.289062 960.390625 1497.25 948.691406 1492.890625 937.660156 C 1488.488281 926.511719 1482.761719 916.039062 1476.230469 906.511719 C 1475.878906 905.980469 1475.191406 905.851562 1474.691406 906.210938 C 1474.179688 906.578125 1474.058594 907.308594 1474.410156 907.839844 C 1480.429688 917.449219 1485.628906 927.941406 1489.511719 939.050781 C 1493.28125 949.859375 1495.769531 961.25 1496.5 972.949219 C 1496.621094 974.410156 1497.851562 975.5 1499.238281 975.371094 C 1500.628906 975.238281 1501.660156 973.949219 1501.53125 972.488281 "/>
<path fill-rule="evenodd" fill="rgb(98.242188%, 46.99707%, 40.989685%)" fill-opacity="1" d="M 1513.941406 937.039062 C 1514.511719 935.398438 1515.730469 933.878906 1517.171875 932.488281 C 1519.679688 930.058594 1522.789062 928.039062 1524.898438 926.628906 C 1530.949219 922.550781 1537.648438 919.449219 1544.578125 917.71875 C 1551.640625 915.960938 1558.921875 915.601562 1565.988281 917.058594 C 1566.589844 917.191406 1567.179688 916.800781 1567.308594 916.171875 C 1567.441406 915.539062 1567.058594 914.921875 1566.460938 914.78125 C 1559.089844 912.878906 1551.410156 912.890625 1543.910156 914.378906 C 1536.5 915.839844 1529.269531 918.78125 1522.679688 922.769531 C 1520.328125 924.191406 1516.878906 926.238281 1514.039062 928.730469 C 1511.890625 930.621094 1510.140625 932.800781 1509.230469 935.121094 C 1508.730469 936.488281 1509.378906 938.03125 1510.679688 938.558594 C 1511.980469 939.089844 1513.441406 938.410156 1513.941406 937.039062 "/>
<path fill-rule="evenodd" fill="rgb(98.242188%, 46.99707%, 40.989685%)" fill-opacity="1" d="M 1529.621094 887.558594 C 1529.421875 886.519531 1529.25 885.480469 1529.101562 884.421875 C 1528.480469 880.070312 1528.128906 875.621094 1527.390625 871.289062 C 1526.148438 864.050781 1524.75 856.871094 1523.101562 849.769531 C 1521.441406 842.640625 1519.550781 835.589844 1517.351562 828.628906 C 1517.171875 828.019531 1516.550781 827.671875 1515.960938 827.859375 C 1515.378906 828.050781 1515.050781 828.699219 1515.230469 829.320312 C 1517.078125 836.308594 1518.621094 843.371094 1519.929688 850.5 C 1521.230469 857.601562 1522.28125 864.761719 1523.171875 871.980469 C 1523.691406 876.300781 1523.828125 880.71875 1524.238281 885.058594 C 1524.351562 886.199219 1524.480469 887.328125 1524.628906 888.460938 C 1524.871094 889.898438 1526.179688 890.878906 1527.550781 890.628906 C 1528.929688 890.378906 1529.851562 889.011719 1529.621094 887.558594 "/>
<path fill-rule="evenodd" fill="rgb(98.242188%, 46.99707%, 40.989685%)" fill-opacity="1" d="M 1555.601562 843.101562 C 1556.269531 841.941406 1557.488281 841.050781 1558.839844 840.28125 C 1561.371094 838.839844 1564.351562 837.871094 1566.289062 837.078125 C 1572.261719 834.640625 1578.558594 832.710938 1584.910156 831.960938 C 1591.269531 831.199219 1597.679688 831.589844 1603.871094 833.800781 C 1604.441406 834.019531 1605.078125 833.710938 1605.289062 833.109375 C 1605.5 832.5 1605.210938 831.828125 1604.628906 831.609375 C 1598.191406 828.898438 1591.410156 828.109375 1584.628906 828.53125 C 1577.929688 828.949219 1571.230469 830.589844 1564.839844 832.789062 C 1562.351562 833.648438 1558.359375 834.738281 1555.308594 836.570312 C 1553.648438 837.558594 1552.28125 838.789062 1551.359375 840.210938 C 1550.601562 841.449219 1550.941406 843.101562 1552.109375 843.890625 C 1553.28125 844.691406 1554.851562 844.328125 1555.601562 843.101562 "/>
<path fill-rule="evenodd" fill="rgb(98.242188%, 46.99707%, 40.989685%)" fill-opacity="1" d="M 1484.328125 1080.539062 C 1489.210938 1026.039062 1503.890625 952.300781 1532.121094 889.148438 C 1551 846.921875 1575.910156 809.410156 1608.050781 785.640625 C 1608.839844 785.058594 1609.050781 783.921875 1608.5 783.078125 C 1607.960938 782.25 1606.871094 782.03125 1606.070312 782.609375 C 1572.851562 806.109375 1546.679688 843.730469 1526.589844 886.339844 C 1496.691406 949.769531 1480.320312 1024.25 1474.269531 1079.425781 C 1473.980469 1082.347656 1476 1084.96875 1478.769531 1085.277344 C 1481.550781 1085.585938 1484.03125 1083.460938 1484.328125 1080.539062 "/>
<path fill-rule="evenodd" fill="rgb(98.242188%, 46.99707%, 40.989685%)" fill-opacity="1" d="M 1425.691406 850.140625 C 1400.558594 823.078125 1365.21875 808.28125 1329.308594 800.121094 C 1317.160156 797.359375 1304.851562 794.640625 1292.648438 792.871094 C 1288.738281 792.300781 1281.519531 790.28125 1278.320312 792.871094 C 1275.171875 795.421875 1279.851562 803.519531 1281.089844 806.570312 C 1287.179688 821.539062 1293.828125 836.351562 1300.289062 851.210938 C 1305.078125 862.210938 1310.710938 873.269531 1317.078125 884.160156 L 1317.601562 884.03125 C 1324.960938 882.160156 1332.320312 880.238281 1339.800781 878.691406 C 1343.03125 878.019531 1346.21875 877.429688 1349.628906 877.53125 C 1350.601562 877.558594 1352.78125 877.390625 1353.441406 878.550781 C 1354.160156 879.808594 1352.53125 881.53125 1351.941406 882.289062 C 1350.011719 884.789062 1347.871094 887.109375 1345.808594 889.5 C 1343.199219 892.53125 1340.480469 895.460938 1337.769531 898.390625 C 1335.480469 900.871094 1333.210938 903.378906 1330.890625 905.828125 C 1342.328125 922.398438 1355.398438 938.261719 1369.691406 952.640625 C 1372.871094 951.398438 1376.21875 950.558594 1379.25 950.171875 C 1385.480469 949.359375 1390.441406 953.191406 1387.921875 959.480469 C 1387.148438 961.410156 1386.089844 963.210938 1385.121094 965.03125 C 1384.859375 965.511719 1384.609375 966 1384.351562 966.488281 C 1401.859375 981.980469 1420.839844 995.109375 1440.609375 1004.660156 C 1444.011719 1008.933594 1456.03125 979.910156 1456.5 978.21875 C 1461.859375 959.179688 1461.878906 938.121094 1458.460938 917.539062 C 1456.789062 907.519531 1453.96875 897.601562 1449.960938 887.960938 C 1447.640625 882.410156 1445.019531 877.171875 1442.121094 872.21875 C 1434.628906 874.53125 1426.980469 876.5 1419.320312 878.378906 C 1418.039062 878.699219 1411.609375 881.109375 1410.398438 879.480469 C 1409.578125 878.359375 1411.128906 876.019531 1411.550781 875.210938 C 1413.320312 871.828125 1415.230469 868.53125 1417.089844 865.199219 C 1419.921875 860.148438 1422.789062 855.140625 1425.691406 850.140625 "/>
<path fill-rule="evenodd" fill="rgb(98.242188%, 46.99707%, 40.989685%)" fill-opacity="1" d="M 1432.238281 971.488281 C 1431.421875 959.738281 1432.378906 947.988281 1434.699219 936.570312 C 1437.058594 924.921875 1440.800781 913.628906 1445.460938 903.070312 C 1445.730469 902.488281 1445.5 901.789062 1444.949219 901.511719 C 1444.410156 901.230469 1443.738281 901.46875 1443.46875 902.039062 C 1438.300781 912.601562 1434.03125 923.929688 1431.160156 935.691406 C 1428.289062 947.421875 1426.820312 959.558594 1427.199219 971.769531 C 1427.269531 973.238281 1428.460938 974.359375 1429.851562 974.289062 C 1431.25 974.210938 1432.320312 972.949219 1432.238281 971.488281 "/>
<path fill-rule="evenodd" fill="rgb(98.242188%, 46.99707%, 40.989685%)" fill-opacity="1" d="M 1414.660156 936.410156 C 1413.441406 934.269531 1411.410156 932.421875 1409.019531 930.929688 C 1405.878906 928.980469 1402.191406 927.589844 1399.691406 926.609375 C 1392.609375 923.839844 1385.03125 922.261719 1377.46875 922.179688 C 1369.910156 922.089844 1362.378906 923.488281 1355.390625 926.691406 C 1354.828125 926.929688 1354.558594 927.609375 1354.789062 928.210938 C 1355.019531 928.800781 1355.671875 929.089844 1356.230469 928.851562 C 1362.988281 926.140625 1370.191406 925.171875 1377.359375 925.601562 C 1384.480469 926.03125 1391.550781 927.871094 1398.109375 930.808594 C 1400.371094 931.820312 1403.710938 933.238281 1406.511719 935.171875 C 1408.089844 936.269531 1409.488281 937.53125 1410.261719 939.039062 C 1410.941406 940.308594 1412.488281 940.769531 1413.699219 940.039062 C 1414.921875 939.320312 1415.339844 937.691406 1414.660156 936.410156 "/>
<path fill-rule="evenodd" fill="rgb(98.242188%, 46.99707%, 40.989685%)" fill-opacity="1" d="M 1393.28125 893.140625 C 1393.28125 892.011719 1393.261719 890.871094 1393.21875 889.71875 C 1393.050781 885.359375 1392.601562 880.960938 1392.550781 876.589844 C 1392.46875 869.28125 1392.558594 862 1392.910156 854.730469 C 1393.25 847.449219 1393.839844 840.199219 1394.75 832.960938 C 1394.839844 832.320312 1394.429688 831.71875 1393.820312 831.621094 C 1393.21875 831.519531 1392.648438 831.960938 1392.558594 832.589844 C 1391.300781 839.859375 1390.359375 847.148438 1389.671875 854.480469 C 1388.980469 861.800781 1388.539062 869.140625 1388.269531 876.53125 C 1388.109375 880.941406 1388.359375 885.390625 1388.320312 889.808594 C 1388.308594 890.871094 1388.28125 891.929688 1388.230469 892.988281 C 1388.191406 894.460938 1389.28125 895.691406 1390.679688 895.730469 C 1392.070312 895.769531 1393.238281 894.609375 1393.28125 893.140625 "/>
<path fill-rule="evenodd" fill="rgb(98.242188%, 46.99707%, 40.989685%)" fill-opacity="1" d="M 1360.480469 850.320312 C 1359.359375 849.058594 1357.820312 848.078125 1356.03125 847.390625 C 1352.78125 846.148438 1348.691406 845.800781 1346.128906 845.398438 C 1339.488281 844.378906 1332.621094 843.980469 1325.910156 844.808594 C 1319.199219 845.640625 1312.671875 847.660156 1306.699219 851.480469 C 1306.171875 851.800781 1305.980469 852.519531 1306.289062 853.070312 C 1306.589844 853.628906 1307.269531 853.828125 1307.800781 853.511719 C 1313.601562 850.21875 1319.851562 848.660156 1326.199219 848.238281 C 1332.621094 847.808594 1339.128906 848.558594 1345.390625 849.890625 C 1347.410156 850.308594 1350.46875 850.738281 1353.148438 851.691406 C 1354.578125 852.191406 1355.890625 852.839844 1356.691406 853.851562 C 1357.621094 854.949219 1359.21875 855.050781 1360.261719 854.078125 C 1361.308594 853.101562 1361.398438 851.421875 1360.480469 850.320312 "/>
<path fill-rule="evenodd" fill="rgb(98.242188%, 46.99707%, 40.989685%)" fill-opacity="1" d="M 1468.28125 1072.703125 C 1455.03125 1019.382812 1429.089844 948.941406 1391.289062 891.761719 C 1365.761719 853.148438 1334.828125 820.578125 1298.789062 803.351562 C 1297.910156 802.921875 1296.871094 803.320312 1296.460938 804.238281 C 1296.058594 805.160156 1296.441406 806.25 1297.308594 806.679688 C 1332.308594 824.359375 1361.949219 856.988281 1386.210938 895.398438 C 1422.320312 952.550781 1446.480469 1022.484375 1458.480469 1075.289062 C 1459.160156 1078.140625 1461.898438 1079.875 1464.609375 1079.160156 C 1467.308594 1078.445312 1468.960938 1075.554688 1468.28125 1072.703125 "/>
<path fill-rule="evenodd" fill="rgb(100%, 73.242188%, 52.34375%)" fill-opacity="1" d="M 1584.441406 1116.847656 L 1344.03125 1119.53125 C 1344.03125 1119.53125 1362.988281 1268.214844 1388.71875 1299.128906 C 1414.441406 1330.046875 1517.339844 1330.046875 1543.070312 1299.128906 C 1568.789062 1268.214844 1584.441406 1116.847656 1584.441406 1116.847656 "/>
<g clip-path="url(#clip-0)">
<g clip-path="url(#clip-1)">
<path fill-rule="evenodd" fill="rgb(100%, 86.71875%, 82.8125%)" fill-opacity="1" d="M 1324.21875 1188.984375 C 1340.378906 1156.449219 1382.640625 1149.386719 1404.488281 1169.695312 C 1409.289062 1174.15625 1414.101562 1184.59375 1419.289062 1192.390625 C 1421.519531 1195.726562 1423.808594 1198.605469 1426.171875 1200.464844 C 1427.941406 1201.859375 1429.769531 1202.699219 1431.621094 1202.867188 C 1434.628906 1203.140625 1437.78125 1202.183594 1441.011719 1200.285156 C 1445.480469 1197.660156 1450.171875 1193.1875 1454.960938 1188.019531 C 1461.921875 1180.507812 1469.140625 1171.507812 1476.328125 1164.886719 C 1480.910156 1160.671875 1485.449219 1157.417969 1489.929688 1156.3125 C 1499.648438 1153.910156 1506.679688 1160.921875 1513.519531 1168.992188 C 1521 1177.820312 1528.210938 1187.984375 1537.441406 1191.089844 C 1540 1191.953125 1542.75 1191.785156 1545.609375 1190.789062 C 1549.53125 1189.425781 1553.699219 1186.460938 1557.871094 1182.683594 C 1567.800781 1173.683594 1577.808594 1160.023438 1584.609375 1154.308594 C 1585.328125 1153.695312 1585.449219 1152.578125 1584.871094 1151.8125 C 1584.289062 1151.046875 1583.230469 1150.921875 1582.5 1151.53125 C 1575.679688 1157.265625 1565.640625 1170.964844 1555.671875 1179.992188 C 1552.488281 1182.875 1549.328125 1185.269531 1546.28125 1186.707031 C 1543.53125 1188.011719 1540.890625 1188.527344 1538.46875 1187.710938 C 1534.21875 1186.28125 1530.480469 1183.171875 1526.910156 1179.433594 C 1523.171875 1175.511719 1519.640625 1170.894531 1516.03125 1166.628906 C 1508.320312 1157.523438 1500.128906 1150.148438 1489.160156 1152.855469 C 1484.21875 1154.074219 1479.160156 1157.566406 1474.109375 1162.214844 C 1466.859375 1168.894531 1459.570312 1177.964844 1452.550781 1185.539062 C 1448.019531 1190.433594 1443.601562 1194.699219 1439.371094 1197.1875 C 1436.789062 1198.699219 1434.308594 1199.546875 1431.910156 1199.332031 C 1430.28125 1199.183594 1428.730469 1198.199219 1427.191406 1196.757812 C 1425.429688 1195.109375 1423.730469 1192.867188 1422.050781 1190.351562 C 1416.710938 1182.320312 1411.671875 1171.628906 1406.71875 1167.035156 C 1383.460938 1145.417969 1338.429688 1152.710938 1321.238281 1187.339844 C 1320.808594 1188.207031 1321.128906 1189.28125 1321.949219 1189.734375 C 1322.769531 1190.1875 1323.789062 1189.851562 1324.21875 1188.984375 "/>
</g>
</g>
<g clip-path="url(#clip-2)">
<g clip-path="url(#clip-3)">
<path fill-rule="evenodd" fill="rgb(100%, 86.71875%, 82.8125%)" fill-opacity="1" d="M 1325.109375 1231.535156 C 1341.261719 1199 1383.519531 1191.941406 1405.378906 1212.246094 C 1410.179688 1216.710938 1414.988281 1227.144531 1420.179688 1234.941406 C 1422.410156 1238.28125 1424.699219 1241.15625 1427.058594 1243.015625 C 1428.828125 1244.410156 1430.648438 1245.253906 1432.511719 1245.421875 C 1435.519531 1245.691406 1438.671875 1244.738281 1441.898438 1242.839844 C 1446.371094 1240.214844 1451.058594 1235.742188 1455.851562 1230.574219 C 1462.808594 1223.0625 1470.019531 1214.0625 1477.210938 1207.441406 C 1481.789062 1203.226562 1486.339844 1199.972656 1490.820312 1198.863281 C 1500.539062 1196.464844 1507.570312 1203.476562 1514.398438 1211.546875 C 1521.878906 1220.375 1529.101562 1230.535156 1538.328125 1233.644531 C 1540.890625 1234.507812 1543.640625 1234.339844 1546.5 1233.34375 C 1550.421875 1231.976562 1554.589844 1229.011719 1558.761719 1225.238281 C 1568.691406 1216.238281 1578.691406 1202.574219 1585.488281 1196.859375 C 1586.21875 1196.25 1586.339844 1195.132812 1585.761719 1194.367188 C 1585.179688 1193.601562 1584.121094 1193.476562 1583.390625 1194.085938 C 1576.570312 1199.820312 1566.519531 1213.519531 1556.558594 1222.546875 C 1553.378906 1225.429688 1550.21875 1227.824219 1547.171875 1229.261719 C 1544.410156 1230.5625 1541.78125 1231.078125 1539.359375 1230.265625 C 1535.109375 1228.835938 1531.359375 1225.722656 1527.800781 1221.988281 C 1524.058594 1218.066406 1520.53125 1213.449219 1516.921875 1209.183594 C 1509.210938 1200.074219 1501.019531 1192.699219 1490.050781 1195.410156 C 1485.109375 1196.628906 1480.039062 1200.121094 1474.988281 1204.769531 C 1467.738281 1211.445312 1460.460938 1220.515625 1453.441406 1228.09375 C 1448.898438 1232.988281 1444.488281 1237.253906 1440.261719 1239.742188 C 1437.679688 1241.253906 1435.191406 1242.101562 1432.789062 1241.886719 C 1431.171875 1241.738281 1429.621094 1240.75 1428.078125 1239.308594 C 1426.320312 1237.660156 1424.621094 1235.421875 1422.941406 1232.90625 C 1417.589844 1224.871094 1412.558594 1214.183594 1407.609375 1209.585938 C 1384.351562 1187.972656 1339.320312 1195.261719 1322.128906 1229.894531 C 1321.691406 1230.761719 1322.011719 1231.835938 1322.839844 1232.285156 C 1323.660156 1232.742188 1324.679688 1232.40625 1325.109375 1231.535156 "/>
</g>
</g>
<path fill-rule="evenodd" fill="rgb(100%, 73.242188%, 52.34375%)" fill-opacity="1" d="M 1583.890625 1079.957031 C 1543.71875 1072.011719 1383.039062 1072.011719 1342.871094 1079.957031 C 1329.359375 1082.628906 1329.359375 1124.960938 1342.871094 1127.632812 C 1383.039062 1135.574219 1543.71875 1135.574219 1583.890625 1127.632812 C 1597.398438 1124.960938 1597.398438 1082.628906 1583.890625 1079.957031 "/>
<path fill-rule="evenodd" fill="rgb(28.393555%, 22.410583%, 17.700195%)" fill-opacity="1" d="M 1383.871094 1399.015625 C 1396.109375 1410.53125 1409 1421.511719 1422.53125 1431.640625 C 1431.210938 1438.144531 1439.328125 1445.175781 1450.769531 1445.710938 C 1477.808594 1446.976562 1505.121094 1439.703125 1532.039062 1438.203125 C 1541.71875 1437.660156 1556.441406 1435.339844 1564.878906 1441.664062 C 1582.628906 1454.957031 1566.738281 1481.226562 1555.128906 1491.84375 C 1528.941406 1515.789062 1490.46875 1516.488281 1459.851562 1532.734375 C 1451.679688 1537.066406 1444.359375 1542.503906 1437.03125 1547.992188 C 1432.519531 1551.371094 1427.5 1555.800781 1421.351562 1555.773438 C 1411.859375 1555.734375 1403.859375 1546.835938 1398.339844 1540.390625 C 1383.011719 1522.453125 1370.058594 1502.546875 1356.789062 1483.210938 C 1349.980469 1473.296875 1341.941406 1462.671875 1339.050781 1450.980469 C 1333.238281 1427.429688 1365.808594 1409.886719 1383.871094 1399.015625 "/>
<path fill-rule="evenodd" fill="rgb(28.393555%, 22.410583%, 17.700195%)" fill-opacity="1" d="M 1209.121094 1477.394531 C 1214.710938 1493.652344 1221.121094 1509.753906 1228.460938 1525.429688 C 1233.179688 1535.492188 1237.171875 1545.742188 1246.988281 1551.925781 C 1270.230469 1566.546875 1297.539062 1573.785156 1321.921875 1585.910156 C 1330.679688 1590.273438 1344.691406 1595.585938 1349.28125 1605.367188 C 1358.910156 1625.9375 1333.101562 1641.128906 1318.089844 1644.671875 C 1284.25 1652.667969 1250.070312 1634.070312 1215.789062 1633.070312 C 1206.660156 1632.804688 1197.761719 1633.933594 1188.839844 1635.105469 C 1183.339844 1635.828125 1176.929688 1637.21875 1171.53125 1634.125 C 1163.191406 1629.347656 1160.148438 1617.515625 1158.199219 1609.089844 C 1152.78125 1585.636719 1150.339844 1561.640625 1147.371094 1537.988281 C 1145.839844 1525.863281 1143.539062 1512.488281 1146.269531 1500.757812 C 1151.761719 1477.121094 1188.328125 1477.945312 1209.121094 1477.394531 "/>
<path fill-rule="evenodd" fill="rgb(47.801208%, 61.521912%, 72.459412%)" fill-opacity="1" d="M 991.589844 1605.617188 C 967.40625 1691.457031 1668.679688 1416.566406 1561.71875 1316.511719 C 1507.710938 1265.984375 1248.148438 976.238281 1215.210938 952.960938 C 1118.441406 884.558594 882.207031 868.210938 882.207031 868.210938 C 882.207031 868.210938 754.859375 616.691406 704.171875 588.929688 C 596.671875 530.058594 644.722656 656.75 613.332031 681.589844 C 556.785156 693.011719 643.648438 1004.550781 655.273438 1041.550781 C 693.195312 1162.269531 755.003906 1121.578125 844.796875 1111.164062 C 857.566406 1111.375 870.523438 1111.148438 883.5 1110.582031 C 946.867188 1116.011719 1010.179688 1539.640625 991.589844 1605.617188 "/>
<path fill-rule="evenodd" fill="rgb(47.801208%, 61.521912%, 72.459412%)" fill-opacity="1" d="M 893.785156 763.648438 C 897.679688 776.679688 831.851562 787.011719 838.195312 798.828125 C 852.511719 825.5 951.34375 870.328125 982.148438 884.601562 C 993.351562 889.789062 1006.960938 888.03125 1019.828125 889.789062 C 1034.148438 891.761719 1047.308594 895.320312 1062.800781 894.878906 C 1077.269531 894.46875 1125.789062 891.050781 1135.480469 878.328125 C 1146.160156 864.289062 1151.449219 807.460938 1136.410156 807.640625 C 1111.800781 807.941406 1064.210938 815.179688 1038.28125 805.660156 C 1025.5 800.96875 934.125 733.980469 925.851562 724.460938 C 907.230469 703.039062 824.167969 754.03125 893.785156 763.648438 "/>
<path fill-rule="evenodd" fill="rgb(100%, 86.71875%, 82.8125%)" fill-opacity="1" d="M 862.917969 944.679688 C 861.890625 953.878906 857.578125 963.300781 856.910156 972.601562 C 856.710938 975.371094 855.980469 980.46875 858.472656 982.480469 C 860.445312 984.070312 864.921875 983.089844 867.636719 982.660156 C 874.367188 981.601562 880.78125 980.578125 887.433594 980.761719 C 897.421875 981.039062 905.484375 985.421875 915.546875 985.328125 C 922.621094 985.269531 929.621094 983.011719 936.628906 981.410156 C 943.8125 979.769531 951.128906 978.761719 958.359375 977.761719 C 964.875 976.859375 981.953125 975.710938 987.242188 971.460938 C 989.761719 969.429688 986.027344 967.761719 987.8125 965.78125 C 990.222656 963.109375 996.246094 964.839844 998.296875 962.488281 C 999.96875 960.578125 996.894531 959.441406 997.015625 957.808594 C 997.070312 957.019531 1000.449219 956.589844 1000.199219 954.921875 C 999.382812 949.460938 983.503906 942.648438 978.039062 939.988281 C 973.019531 937.539062 967.433594 936.03125 961.285156 935.339844 C 959.730469 935.171875 950.75 934.78125 951.660156 933.621094 C 954.023438 930.578125 962.089844 928.929688 965.835938 927.609375 C 967.363281 927.078125 970.492188 926.589844 970.828125 925 C 971.136719 923.550781 968.066406 922.621094 966.824219 922.171875 C 962.039062 920.441406 956.25 921.019531 950.820312 922.730469 C 939.9375 926.160156 931.679688 933.308594 921.195312 937.460938 C 904.878906 943.910156 879.65625 944.289062 862.917969 944.679688 "/>
<g clip-path="url(#clip-4)">
<g clip-path="url(#clip-5)">
<path fill-rule="evenodd" fill="rgb(78.125%, 54.881287%, 36.302185%)" fill-opacity="1" d="M 1000.339844 959.851562 C 992.074219 954.691406 982.605469 949.851562 972.039062 947.121094 C 964.976562 945.300781 957.425781 944.429688 949.414062 945.039062 C 949.175781 945.058594 948.992188 944.921875 949.007812 944.730469 C 949.023438 944.550781 949.230469 944.378906 949.472656 944.359375 C 957.628906 943.648438 965.347656 944.460938 972.582031 946.21875 C 983.355469 948.859375 993.058594 953.628906 1001.550781 958.738281 C 1001.890625 958.949219 1001.890625 959.371094 1001.558594 959.671875 C 1001.230469 959.980469 1000.691406 960.050781 1000.339844 959.851562 "/>
</g>
</g>
<g clip-path="url(#clip-6)">
<g clip-path="url(#clip-7)">
<path fill-rule="evenodd" fill="rgb(78.125%, 54.881287%, 36.302185%)" fill-opacity="1" d="M 992.382812 967.171875 C 991.261719 966.078125 989.867188 965.148438 988.347656 964.339844 C 986.019531 963.089844 983.394531 962.101562 980.933594 961.179688 C 974.785156 958.871094 967.46875 956.730469 959.855469 955.75 C 954.753906 955.101562 949.519531 954.96875 944.421875 955.671875 C 944.179688 955.710938 943.984375 955.578125 943.980469 955.398438 C 943.976562 955.21875 944.167969 955.039062 944.40625 955.011719 C 949.613281 954.230469 954.972656 954.289062 960.207031 954.898438 C 967.964844 955.789062 975.445312 957.859375 981.742188 960.121094 C 984.285156 961.03125 986.996094 962.011719 989.40625 963.25 C 991.054688 964.101562 992.5625 965.078125 993.789062 966.21875 C 994.0625 966.488281 993.96875 966.910156 993.582031 967.171875 C 993.191406 967.429688 992.65625 967.429688 992.382812 967.171875 "/>
</g>
</g>
<g clip-path="url(#clip-8)">
<g clip-path="url(#clip-9)">
<path fill-rule="evenodd" fill="rgb(78.125%, 54.881287%, 36.302185%)" fill-opacity="1" d="M 990.726562 970.839844 C 989.707031 970.039062 988.277344 969.46875 986.714844 969.019531 C 984.296875 968.328125 981.558594 967.941406 979.386719 967.550781 C 973.679688 966.53125 967.855469 966.230469 961.949219 966.578125 C 956.019531 966.921875 950.003906 967.910156 943.933594 969.46875 C 943.695312 969.53125 943.46875 969.441406 943.429688 969.261719 C 943.390625 969.089844 943.550781 968.890625 943.785156 968.828125 C 949.929688 967.179688 956.027344 966.089844 962.054688 965.660156 C 968.097656 965.230469 974.066406 965.449219 979.9375 966.410156 C 982.175781 966.78125 984.988281 967.148438 987.484375 967.820312 C 989.257812 968.300781 990.867188 968.941406 992.035156 969.808594 C 992.34375 970.050781 992.300781 970.46875 991.941406 970.761719 C 991.578125 971.039062 991.035156 971.078125 990.726562 970.839844 "/>
</g>
</g>
<path fill-rule="evenodd" fill="rgb(28.393555%, 22.410583%, 17.700195%)" fill-opacity="1" d="M 1248.191406 756.398438 L 961.976562 752.46875 L 910.765625 979.019531 L 791.90625 958.601562 L 781.976562 999.941406 L 918.816406 1032.484375 L 1188.328125 996.121094 L 1248.191406 756.398438 "/>
<path fill-rule="evenodd" fill="rgb(47.801208%, 61.521912%, 72.459412%)" fill-opacity="1" d="M 664.617188 877.191406 C 668.222656 889.320312 677.140625 900.480469 683.03125 911.480469 C 696.324219 936.300781 718.070312 976.480469 746.757812 989.730469 C 757.1875 994.550781 769.875 992.878906 781.871094 994.511719 C 795.21875 996.320312 807.472656 999.609375 821.917969 999.179688 C 835.40625 998.78125 880.640625 995.519531 889.695312 983.648438 C 899.679688 970.558594 904.722656 917.609375 890.699219 917.808594 C 867.757812 918.121094 823.386719 924.941406 799.230469 916.101562 C 787.324219 911.75 776.238281 888.53125 768.542969 879.679688 C 751.226562 859.75 693.039062 886.140625 664.617188 877.191406 "/>
<path fill-rule="evenodd" fill="rgb(100%, 73.242188%, 52.34375%)" fill-opacity="1" d="M 713.492188 319.980469 C 630.09375 314.421875 601.761719 345.191406 584.929688 382.460938 C 565.375 425.75 565.179688 513.460938 569.042969 557.730469 C 590.804688 806.96875 540.792969 859.039062 544.957031 997.390625 C 546.007812 1032.203125 731.308594 954.199219 762.394531 943.191406 C 852.40625 911.28125 969.035156 725.070312 962.90625 723.171875 C 946.5 718.070312 841.898438 542.589844 833.058594 529.078125 C 788.03125 460.21875 839.15625 328.359375 713.492188 319.980469 "/>
<path fill-rule="evenodd" fill="rgb(100%, 86.71875%, 82.8125%)" fill-opacity="1" d="M 645.742188 465.121094 C 658.0625 438.011719 703.851562 389.28125 727.746094 386.109375 C 751.640625 382.949219 784.890625 442.171875 789.113281 446.128906 C 790.125 447.078125 786.035156 460.03125 785.523438 466.960938 C 784.867188 475.851562 788.398438 484.078125 788.820312 492.851562 C 789.269531 502.128906 785 511.359375 779.5625 518.761719 C 770.058594 531.699219 757.640625 542.5 743.730469 550.699219 C 736.585938 554.910156 728.710938 559.101562 720.199219 559.351562 C 709.140625 559.671875 696.433594 552.171875 687.914062 546.078125 C 664.089844 529.078125 650.546875 499.089844 645.742188 465.121094 "/>
<g clip-path="url(#clip-10)">
<g clip-path="url(#clip-11)">
<path fill-rule="evenodd" fill="rgb(47.801208%, 61.521912%, 72.459412%)" fill-opacity="1" d="M 657.25 418.570312 C 685.207031 406.941406 717.542969 401.800781 747.175781 409.480469 C 757.289062 412.101562 766.765625 416.089844 776.269531 420.359375 C 780.40625 422.21875 785.519531 424.320312 789.148438 420.28125 C 793.246094 415.710938 792.234375 408.378906 790.308594 403.121094 C 785.53125 390.078125 773.808594 379.539062 762.054688 372.828125 C 733.707031 356.628906 700.140625 363.851562 674.59375 381.730469 L 657.25 418.570312 "/>
</g>
</g>
</svg>
